<svg width="320" height="240" viewBox="0 0 320 240" fill="none" xmlns="http://www.w3.org/2000/svg">
<rect width="320" height="240" rx="12" fill="#F5F5F5"/>
<g clip-path="url(#clip0_840_8368)">
<path d="M210.839 95.6299C210.175 96.923 209.643 98.1024 209.02 99.137C208.908 99.2589 208.769 99.3516 208.614 99.4075C208.459 99.4633 208.293 99.4805 208.13 99.4577C205.034 98.7727 201.841 98.664 198.706 99.137C188.546 100.48 178.905 104.473 170.729 110.724C167.473 113.149 164.589 116.05 162.174 119.331C162.017 119.476 161.894 119.654 161.814 119.853C161.734 120.052 161.699 120.267 161.712 120.481C161.725 120.695 161.785 120.904 161.888 121.092C161.991 121.28 162.134 121.442 162.307 121.566C162.831 122.03 163.395 122.446 163.993 122.808C165.136 123.435 166.138 124.294 166.937 125.332C167.735 126.37 168.313 127.564 168.634 128.839C168.982 130.688 168.765 132.601 168.01 134.322C167.126 136.573 165.89 138.665 164.351 140.519C162.588 142.562 160.178 143.919 157.533 144.357C153.983 144.977 150.371 145.144 146.78 144.854C145.031 144.733 143.309 144.353 141.669 143.726C140.304 143.266 139.098 142.421 138.193 141.29C137.287 140.159 136.72 138.789 136.558 137.343C136.126 134.116 136.415 130.831 137.407 127.732C138.458 123.977 140.218 120.464 142.589 117.387C143.611 115.898 144.994 114.699 146.604 113.906C148.215 113.112 150 112.751 151.788 112.855C153.268 112.827 154.724 113.223 155.99 113.997C157.257 114.772 158.28 115.893 158.944 117.231C159.064 117.479 159.127 117.752 159.127 118.028C159.127 118.304 159.064 118.577 158.944 118.825C158.466 120.2 157.696 121.452 156.687 122.493C155.679 123.533 154.457 124.336 153.107 124.846C150.184 125.973 147.342 127.308 144.47 128.57C142.807 129.149 141.34 130.193 140.238 131.581C140.238 131.581 140.115 131.643 139.89 131.736C139.981 131.422 140.09 131.115 140.217 130.815C141.58 128.036 143.873 125.836 146.688 124.608C149.437 123.294 152.259 122.145 155.039 120.914C155.693 120.625 156.327 120.283 157.083 119.932C156.284 118.545 155.044 117.474 153.567 116.89C151.087 115.872 148.311 115.879 145.836 116.91C143.36 117.941 141.384 119.914 140.33 122.404C138.927 125.821 138.349 129.527 138.643 133.215C138.909 136.598 141.189 139.174 144.715 140.271C148.293 141.228 152.017 141.495 155.693 141.057C157.383 140.893 159.062 140.63 160.722 140.271C162.318 139.906 163.798 139.141 165.026 138.047C165.477 137.669 165.84 137.194 166.089 136.658C166.338 136.121 166.467 135.536 166.467 134.943C166.591 133.47 166.318 131.991 165.677 130.663C165.036 129.335 164.051 128.208 162.828 127.401C162.215 126.935 161.56 126.532 160.927 126.097C159.301 124.98 158.882 123.977 159.823 122.197C160.798 120.253 161.912 118.382 163.155 116.6C167.116 111.164 172.136 106.608 177.905 103.213C184.055 99.5071 190.791 96.9032 197.817 95.5161C201.068 94.9996 204.365 94.8435 207.65 95.0505C208.727 95.1542 209.794 95.348 210.839 95.6299Z" fill="#333333"/>
<path d="M189.023 124.652C188.972 124.89 188.907 125.125 188.829 125.355C188.779 125.506 188.698 125.644 188.59 125.759C188.482 125.875 188.35 125.965 188.204 126.024C188.059 126.083 187.902 126.11 187.745 126.101C187.588 126.093 187.435 126.05 187.296 125.976C187.08 125.872 186.875 125.747 186.683 125.603C185.528 124.776 184.577 124.931 184.015 126.245C183.652 127.17 183.442 128.148 183.391 129.142C183.299 130.642 183.391 132.152 183.391 133.663C183.391 134.956 183.739 135.287 185.006 135.37C185.32 135.399 185.624 135.498 185.896 135.659C185.814 136.239 185.323 136.021 184.986 136.032C183.494 136.032 182.011 136.032 180.529 136.032C180.254 135.977 179.988 135.879 179.742 135.742C179.936 135.576 180.158 135.447 180.396 135.359C180.545 135.346 180.69 135.304 180.822 135.233C180.955 135.163 181.072 135.067 181.167 134.95C181.262 134.834 181.333 134.699 181.377 134.555C181.42 134.41 181.434 134.258 181.419 134.108C181.419 131.625 181.419 129.152 181.419 126.669C181.419 125.738 180.693 125.883 180.059 125.583L183.207 123.514L183.31 125.821L183.524 125.986C183.835 125.509 184.21 125.077 184.638 124.703C185.323 124.242 186.075 123.892 186.867 123.669C187.215 123.56 187.588 123.567 187.932 123.688C188.275 123.808 188.572 124.038 188.778 124.341C189.023 124.234 189.281 124.161 189.545 124.124C190.915 124.124 192.284 124.124 193.633 124.124C193.861 124.178 194.079 124.269 194.277 124.393C194.122 124.536 193.946 124.655 193.756 124.745C192.673 125.014 192.57 125.117 192.938 126.172C193.756 128.5 194.615 130.818 195.463 133.145C195.543 133.289 195.632 133.427 195.729 133.559C196.107 132.659 196.434 131.863 196.751 131.066C197.344 129.597 197.927 128.138 198.509 126.669C198.585 126.49 198.649 126.307 198.703 126.121C198.959 125.21 198.785 124.931 197.875 124.776C197.758 124.775 197.641 124.758 197.528 124.724C197.371 124.62 197.221 124.505 197.078 124.383C197.252 124.29 197.426 124.124 197.599 124.114C198.049 124.114 198.509 124.176 198.959 124.176C199.705 124.176 200.451 124.124 201.198 124.176C201.403 124.218 201.598 124.303 201.77 124.424C201.627 124.559 201.494 124.786 201.341 124.807C200.948 124.884 200.583 125.068 200.285 125.337C199.986 125.606 199.765 125.952 199.644 126.338C197.599 131.107 195.31 135.763 193.817 140.76C193.777 141.002 193.682 141.231 193.539 141.43C193.397 141.629 193.212 141.792 192.998 141.907C192.783 142.022 192.546 142.085 192.303 142.093C192.061 142.1 191.82 142.051 191.599 141.949C191.378 141.897 191.186 141.76 191.064 141.567C190.942 141.374 190.899 141.14 190.945 140.915C190.932 140.812 190.941 140.708 190.969 140.609C190.998 140.51 191.046 140.418 191.111 140.338C191.176 140.259 191.257 140.194 191.348 140.147C191.439 140.1 191.538 140.073 191.64 140.067C191.712 140.067 191.783 140.004 191.855 140.015C193.082 140.18 193.541 139.394 193.899 138.401C194.001 138.049 194.145 137.718 194.277 137.366C194.438 136.949 194.514 136.503 194.502 136.056C194.489 135.608 194.389 135.167 194.206 134.759C193.01 131.842 191.865 128.904 190.751 125.955C190.66 125.567 190.437 125.224 190.122 124.985C189.806 124.747 189.417 124.629 189.023 124.652Z" fill="#333333"/>
<path d="M124.637 125.676C125.238 125.155 125.87 124.671 126.528 124.227C127.495 123.593 128.667 123.364 129.798 123.588C130.929 123.812 131.929 124.471 132.589 125.427C132.952 126.109 133.152 126.867 133.172 127.641C133.243 129.71 133.172 131.779 133.172 133.849C133.172 134.883 133.295 135.069 134.347 135.328C134.545 135.406 134.728 135.518 134.889 135.659C134.685 135.762 134.48 135.959 134.266 135.959C132.927 135.959 131.577 135.959 130.238 135.959C129.999 135.923 129.768 135.846 129.553 135.731C129.737 135.597 129.901 135.38 130.105 135.328C131.128 135.08 131.271 134.945 131.26 133.849C131.26 131.779 131.312 129.71 131.158 127.641C131.005 125.572 130.065 124.734 128.194 124.713C126.323 124.693 124.954 125.686 124.79 127.631C124.606 129.876 124.657 132.142 124.637 134.407C124.637 135.069 125.219 135.142 125.659 135.297C125.889 135.398 126.103 135.534 126.293 135.7C126.064 135.815 125.819 135.892 125.567 135.928C124.269 135.928 122.971 135.928 121.673 135.928C121.422 135.875 121.181 135.785 120.957 135.659C121.131 135.505 121.328 135.379 121.54 135.287C122.511 135.049 122.644 134.914 122.644 133.911V120.358C122.644 119.199 122.541 119.096 121.407 118.858C121.284 118.858 121.182 118.713 121.069 118.641C121.161 118.516 121.223 118.31 121.335 118.268C122.265 117.937 123.196 117.627 124.136 117.337C124.596 117.192 124.576 117.565 124.576 117.844C124.576 119.137 124.576 120.42 124.576 121.713L124.637 125.676Z" fill="#333333"/>
<path d="M119.828 134.447C119.373 134.899 118.881 135.311 118.356 135.678C114.073 138.037 109.341 135.109 109.157 130.174C109.145 129.232 109.333 128.298 109.708 127.436C110.083 126.573 110.637 125.802 111.332 125.175C112.026 124.547 112.846 124.078 113.735 123.798C114.624 123.518 115.562 123.435 116.486 123.553C116.964 123.582 117.439 123.648 117.907 123.75C119.583 124.195 119.614 124.888 119.358 126.419C119.334 126.522 119.286 126.618 119.219 126.699C119.151 126.78 119.066 126.843 118.97 126.884C118.826 126.884 118.581 126.719 118.469 126.574C118.193 126.202 117.988 125.788 117.712 125.415C117.491 125.082 117.206 124.797 116.874 124.576C116.541 124.356 116.169 124.205 115.779 124.133C115.388 124.061 114.987 124.068 114.599 124.155C114.212 124.242 113.845 124.407 113.521 124.64C112.657 125.208 112.023 126.07 111.733 127.071C111.185 128.695 111.146 130.451 111.62 132.099C111.806 132.821 112.164 133.486 112.662 134.035C113.16 134.585 113.784 135.004 114.478 135.254C115.173 135.504 115.917 135.578 116.647 135.47C117.376 135.361 118.068 135.074 118.663 134.633C118.959 134.426 119.266 134.25 119.573 134.075L119.828 134.447Z" fill="#333333"/>
<path d="M169.836 125.601L173.107 123.532V125.808L173.28 125.891L174.16 125.022C174.812 124.227 175.749 123.725 176.766 123.625C177.242 123.608 177.715 123.693 178.156 123.874C178.294 123.937 178.418 124.029 178.519 124.143C178.62 124.257 178.698 124.391 178.746 124.537C178.793 124.683 178.811 124.837 178.798 124.989C178.784 125.142 178.74 125.291 178.667 125.425C178.602 125.57 178.509 125.699 178.392 125.805C178.275 125.911 178.138 125.991 177.989 126.04C177.84 126.09 177.683 126.108 177.527 126.093C177.371 126.078 177.22 126.03 177.083 125.953C176.835 125.81 176.596 125.651 176.367 125.477C176.208 125.316 176.013 125.196 175.798 125.126C175.583 125.057 175.355 125.041 175.132 125.08C174.91 125.118 174.7 125.21 174.52 125.348C174.34 125.485 174.196 125.665 174.098 125.87C173.653 126.666 173.374 127.547 173.28 128.457C173.158 130.298 173.219 132.15 173.28 134.002C173.28 134.85 173.608 135.171 174.436 135.305C174.674 135.284 174.913 135.284 175.151 135.305C175.387 135.4 175.613 135.518 175.826 135.657C175.602 135.8 175.357 135.904 175.1 135.968C173.495 135.968 171.89 135.968 170.296 135.968C170.06 135.915 169.832 135.828 169.621 135.709C169.808 135.536 170.022 135.396 170.255 135.295C171.093 135.088 171.277 134.892 171.277 134.002C171.277 131.602 171.277 129.191 171.277 126.76C171.277 126.057 171.083 125.725 170.347 125.725C170.172 125.705 170 125.664 169.836 125.601Z" fill="#333333"/>
</g>
<defs>
<clipPath id="clip0_840_8368">
<rect width="101.685" height="50" fill="white" transform="translate(109.156 95)"/>
</clipPath>
</defs>
</svg>
