<svg width="320" height="240" viewBox="0 0 320 240" fill="none" xmlns="http://www.w3.org/2000/svg">
<rect width="320" height="240" fill="#F5F5F5"/>
<g clip-path="url(#clip0_1114_8359)">
<path d="M210.841 95.6308C210.177 96.924 209.645 98.1034 209.022 99.138C208.91 99.2598 208.771 99.3526 208.616 99.4085C208.461 99.4643 208.295 99.4815 208.132 99.4587C205.036 98.7737 201.843 98.665 198.708 99.138C188.548 100.481 178.907 104.474 170.731 110.725C167.475 113.15 164.591 116.051 162.176 119.332C162.019 119.477 161.896 119.655 161.816 119.854C161.736 120.053 161.701 120.268 161.714 120.482C161.727 120.696 161.787 120.905 161.89 121.093C161.993 121.281 162.136 121.443 162.308 121.567C162.833 122.031 163.397 122.447 163.995 122.809C165.138 123.436 166.14 124.295 166.938 125.333C167.737 126.371 168.315 127.565 168.636 128.84C168.984 130.689 168.767 132.602 168.012 134.323C167.128 136.574 165.892 138.666 164.353 140.52C162.59 142.563 160.179 143.92 157.535 144.358C153.985 144.978 150.373 145.145 146.782 144.855C145.033 144.733 143.311 144.354 141.671 143.727C140.306 143.267 139.1 142.422 138.195 141.291C137.289 140.16 136.722 138.79 136.56 137.344C136.127 134.117 136.417 130.832 137.408 127.733C138.46 123.978 140.22 120.465 142.591 117.388C143.613 115.899 144.996 114.7 146.606 113.907C148.217 113.113 150.002 112.752 151.79 112.856C153.269 112.828 154.726 113.224 155.992 113.998C157.259 114.773 158.282 115.894 158.946 117.232C159.066 117.48 159.129 117.753 159.129 118.029C159.129 118.305 159.066 118.578 158.946 118.826C158.468 120.201 157.698 121.453 156.689 122.494C155.681 123.534 154.458 124.337 153.109 124.847C150.186 125.974 147.344 127.309 144.472 128.571C142.809 129.15 141.342 130.194 140.24 131.582C140.24 131.582 140.117 131.644 139.892 131.737C139.983 131.423 140.092 131.116 140.219 130.816C141.582 128.037 143.875 125.837 146.69 124.609C149.439 123.295 152.261 122.146 155.041 120.915C155.695 120.626 156.329 120.284 157.085 119.933C156.286 118.546 155.046 117.474 153.569 116.891C151.089 115.873 148.313 115.88 145.838 116.911C143.362 117.942 141.386 119.915 140.332 122.405C138.929 125.822 138.351 129.528 138.645 133.216C138.911 136.599 141.19 139.175 144.717 140.272C148.295 141.229 152.019 141.496 155.695 141.058C157.385 140.894 159.064 140.631 160.724 140.272C162.32 139.907 163.8 139.142 165.027 138.048C165.479 137.67 165.842 137.195 166.091 136.659C166.34 136.122 166.469 135.537 166.469 134.944C166.593 133.471 166.32 131.992 165.679 130.664C165.038 129.336 164.053 128.209 162.83 127.402C162.216 126.936 161.562 126.533 160.929 126.098C159.303 124.981 158.884 123.978 159.825 122.198C160.8 120.253 161.914 118.383 163.157 116.601C167.118 111.165 172.138 106.609 177.907 103.214C184.057 99.5081 190.793 96.9042 197.819 95.517C201.07 95.0006 204.367 94.8444 207.652 95.0515C208.729 95.1552 209.796 95.349 210.841 95.6308Z" fill="#333333"/>
<path d="M189.025 124.652C188.974 124.89 188.909 125.125 188.831 125.355C188.781 125.506 188.699 125.644 188.592 125.759C188.484 125.875 188.352 125.965 188.206 126.024C188.061 126.083 187.904 126.11 187.747 126.101C187.59 126.093 187.437 126.05 187.298 125.976C187.082 125.872 186.877 125.747 186.685 125.603C185.53 124.776 184.579 124.931 184.017 126.245C183.654 127.17 183.444 128.148 183.393 129.142C183.301 130.642 183.393 132.152 183.393 133.663C183.393 134.956 183.741 135.287 185.008 135.37C185.322 135.399 185.626 135.498 185.898 135.659C185.816 136.239 185.325 136.021 184.988 136.032C183.496 136.032 182.013 136.032 180.531 136.032C180.256 135.977 179.99 135.879 179.744 135.742C179.938 135.576 180.16 135.447 180.398 135.359C180.547 135.346 180.692 135.304 180.824 135.233C180.957 135.163 181.074 135.067 181.169 134.95C181.264 134.834 181.335 134.699 181.379 134.555C181.422 134.41 181.436 134.258 181.42 134.108C181.42 131.625 181.42 129.152 181.42 126.669C181.42 125.738 180.695 125.883 180.061 125.583L183.209 123.514L183.312 125.821L183.526 125.986C183.837 125.509 184.212 125.077 184.64 124.703C185.324 124.242 186.077 123.892 186.869 123.669C187.216 123.56 187.59 123.567 187.933 123.688C188.277 123.808 188.574 124.038 188.78 124.341C189.025 124.234 189.283 124.161 189.547 124.124C190.916 124.124 192.286 124.124 193.635 124.124C193.863 124.178 194.081 124.269 194.279 124.393C194.124 124.536 193.948 124.655 193.758 124.745C192.675 125.014 192.572 125.117 192.94 126.172C193.758 128.5 194.617 130.818 195.465 133.145C195.545 133.289 195.634 133.427 195.731 133.559C196.109 132.659 196.436 131.863 196.753 131.066C197.346 129.597 197.929 128.138 198.511 126.669C198.587 126.49 198.651 126.307 198.705 126.121C198.961 125.21 198.787 124.931 197.877 124.776C197.76 124.775 197.643 124.758 197.53 124.724C197.373 124.62 197.223 124.505 197.08 124.383C197.254 124.29 197.428 124.124 197.601 124.114C198.051 124.114 198.511 124.176 198.961 124.176C199.707 124.176 200.453 124.124 201.199 124.176C201.405 124.218 201.6 124.303 201.772 124.424C201.629 124.559 201.496 124.786 201.343 124.807C200.95 124.884 200.585 125.068 200.287 125.337C199.988 125.606 199.767 125.952 199.646 126.338C197.601 131.107 195.312 135.763 193.819 140.76C193.779 141.002 193.683 141.231 193.541 141.43C193.399 141.629 193.214 141.792 193 141.907C192.785 142.022 192.548 142.085 192.305 142.093C192.063 142.1 191.822 142.051 191.601 141.949C191.38 141.897 191.188 141.76 191.066 141.567C190.944 141.374 190.901 141.14 190.947 140.915C190.934 140.812 190.942 140.708 190.971 140.609C191 140.51 191.048 140.418 191.113 140.338C191.178 140.259 191.259 140.194 191.35 140.147C191.441 140.1 191.54 140.073 191.642 140.067C191.714 140.067 191.785 140.004 191.857 140.015C193.083 140.18 193.543 139.394 193.901 138.401C194.003 138.049 194.147 137.718 194.279 137.366C194.44 136.949 194.516 136.503 194.504 136.056C194.491 135.608 194.391 135.167 194.208 134.759C193.012 131.842 191.867 128.904 190.753 125.955C190.662 125.567 190.439 125.224 190.124 124.985C189.808 124.747 189.419 124.629 189.025 124.652Z" fill="#333333"/>
<path d="M124.641 125.676C125.242 125.155 125.873 124.671 126.532 124.227C127.499 123.593 128.671 123.364 129.802 123.588C130.933 123.812 131.933 124.471 132.593 125.427C132.956 126.109 133.156 126.867 133.176 127.641C133.247 129.71 133.176 131.779 133.176 133.849C133.176 134.883 133.299 135.069 134.351 135.328C134.549 135.406 134.732 135.518 134.893 135.659C134.689 135.762 134.484 135.959 134.27 135.959C132.931 135.959 131.581 135.959 130.242 135.959C130.003 135.923 129.771 135.846 129.557 135.731C129.741 135.597 129.905 135.38 130.109 135.328C131.132 135.08 131.275 134.945 131.264 133.849C131.264 131.779 131.316 129.71 131.162 127.641C131.009 125.572 130.068 124.734 128.198 124.713C126.327 124.693 124.958 125.686 124.794 127.631C124.61 129.876 124.661 132.142 124.641 134.407C124.641 135.069 125.223 135.142 125.663 135.297C125.893 135.398 126.107 135.534 126.297 135.7C126.068 135.815 125.823 135.892 125.571 135.928C124.273 135.928 122.975 135.928 121.676 135.928C121.426 135.875 121.185 135.785 120.961 135.659C121.135 135.505 121.331 135.379 121.544 135.287C122.515 135.049 122.648 134.914 122.648 133.911V120.358C122.648 119.199 122.545 119.096 121.411 118.858C121.288 118.858 121.186 118.713 121.073 118.641C121.165 118.516 121.227 118.31 121.339 118.268C122.269 117.937 123.199 117.627 124.14 117.337C124.6 117.192 124.579 117.565 124.579 117.844C124.579 119.137 124.579 120.42 124.579 121.713L124.641 125.676Z" fill="#333333"/>
<path d="M119.83 134.446C119.375 134.898 118.883 135.31 118.358 135.677C114.075 138.036 109.343 135.108 109.159 130.173C109.147 129.231 109.335 128.297 109.71 127.435C110.085 126.572 110.639 125.801 111.334 125.174C112.028 124.546 112.848 124.077 113.737 123.797C114.626 123.517 115.564 123.434 116.488 123.552C116.965 123.581 117.44 123.647 117.908 123.749C119.585 124.194 119.616 124.887 119.36 126.418C119.336 126.521 119.288 126.617 119.221 126.698C119.153 126.779 119.068 126.842 118.972 126.884C118.828 126.884 118.583 126.718 118.471 126.573C118.195 126.201 117.99 125.787 117.714 125.414C117.493 125.081 117.208 124.796 116.876 124.575C116.543 124.355 116.171 124.204 115.781 124.132C115.39 124.06 114.989 124.067 114.601 124.154C114.214 124.241 113.847 124.406 113.523 124.639C112.659 125.207 112.025 126.069 111.735 127.07C111.187 128.694 111.147 130.45 111.622 132.098C111.808 132.82 112.166 133.485 112.664 134.035C113.162 134.584 113.786 135.003 114.48 135.253C115.175 135.503 115.919 135.577 116.649 135.469C117.378 135.36 118.07 135.073 118.665 134.632C118.961 134.425 119.268 134.25 119.575 134.074L119.83 134.446Z" fill="#333333"/>
<path d="M169.836 125.602L173.107 123.533V125.809L173.28 125.892L174.16 125.023C174.812 124.228 175.749 123.726 176.766 123.626C177.242 123.609 177.715 123.694 178.156 123.875C178.294 123.938 178.418 124.03 178.519 124.144C178.62 124.258 178.698 124.392 178.746 124.538C178.793 124.684 178.811 124.838 178.798 124.99C178.784 125.143 178.74 125.292 178.667 125.426C178.602 125.571 178.509 125.7 178.392 125.806C178.275 125.912 178.138 125.992 177.989 126.041C177.84 126.091 177.683 126.109 177.527 126.094C177.371 126.079 177.22 126.031 177.083 125.954C176.835 125.811 176.596 125.652 176.367 125.478C176.208 125.317 176.013 125.197 175.798 125.127C175.583 125.058 175.355 125.042 175.132 125.081C174.91 125.119 174.7 125.211 174.52 125.349C174.34 125.486 174.196 125.665 174.098 125.871C173.653 126.667 173.374 127.548 173.28 128.458C173.158 130.299 173.219 132.151 173.28 134.003C173.28 134.851 173.608 135.172 174.436 135.306C174.674 135.285 174.913 135.285 175.151 135.306C175.387 135.401 175.613 135.519 175.826 135.658C175.602 135.801 175.357 135.905 175.1 135.969C173.495 135.969 171.89 135.969 170.296 135.969C170.06 135.916 169.832 135.829 169.621 135.71C169.808 135.537 170.022 135.397 170.255 135.296C171.093 135.089 171.277 134.893 171.277 134.003C171.277 131.603 171.277 129.192 171.277 126.761C171.277 126.058 171.083 125.726 170.347 125.726C170.172 125.706 170 125.665 169.836 125.602Z" fill="#333333"/>
</g>
<defs>
<clipPath id="clip0_1114_8359">
<rect width="101.685" height="50" fill="white" transform="translate(109.158 95)"/>
</clipPath>
</defs>
</svg>
