<svg width="84" height="41" viewBox="0 0 84 41" fill="none" xmlns="http://www.w3.org/2000/svg">
<g clip-path="url(#clip0_640_8351)">
<path d="M83.3788 0.516459C82.834 1.57688 82.3981 2.54398 81.8868 3.39231C81.7951 3.49225 81.6809 3.56833 81.554 3.61411C81.4271 3.65989 81.2911 3.67402 81.1576 3.6553C78.6187 3.09359 76 3.00447 73.4296 3.39231C65.0983 4.4939 57.193 7.76803 50.4887 12.8937C47.8182 14.8823 45.454 17.2609 43.4731 19.9518C43.3445 20.0704 43.2438 20.2166 43.1783 20.3797C43.1128 20.5428 43.0843 20.7186 43.0947 20.8944C43.1052 21.0701 43.1544 21.2412 43.2387 21.3952C43.323 21.5492 43.4404 21.6821 43.5821 21.7842C44.012 22.1647 44.4749 22.5054 44.9651 22.8022C45.902 23.3164 46.7238 24.0213 47.3787 24.8724C48.0335 25.7235 48.5074 26.7026 48.7704 27.748C49.0561 29.2645 48.8777 30.833 48.2591 32.2442C47.5338 34.0895 46.5207 35.8051 45.2584 37.3257C43.8133 39.001 41.8363 40.1139 39.6678 40.473C36.7569 40.9811 33.7946 41.1179 30.8501 40.8802C29.4161 40.7806 28.0041 40.4691 26.6592 39.9555C25.5404 39.5782 24.5514 38.885 23.8089 37.9576C23.0663 37.0302 22.6012 35.9073 22.4683 34.7213C22.1136 32.0747 22.3514 29.3813 23.164 26.8403C24.0266 23.7615 25.4697 20.8808 27.4136 18.3569C28.2518 17.136 29.3855 16.1532 30.7063 15.5027C32.0271 14.8521 33.4907 14.5555 34.9572 14.6412C36.1701 14.6182 37.3646 14.9429 38.4028 15.5779C39.4411 16.2129 40.2806 17.1322 40.8245 18.2297C40.9235 18.4328 40.975 18.6563 40.975 18.8829C40.975 19.1094 40.9235 19.333 40.8245 19.5361C40.4331 20.6639 39.8015 21.6907 38.9744 22.5439C38.1474 23.3972 37.145 24.0559 36.0385 24.4734C33.6413 25.3981 31.3111 26.4925 28.9559 27.5274C27.5922 28.0025 26.3892 28.8584 25.4858 29.9961C25.4858 29.9961 25.3852 30.047 25.2008 30.1233C25.275 29.8664 25.3646 29.6142 25.469 29.3683C26.5861 27.0892 28.4663 25.2854 30.7747 24.2783C33.0294 23.2009 35.3428 22.2593 37.6226 21.2498C38.1591 21.0122 38.6787 20.7323 39.299 20.4438C38.6432 19.3072 37.6271 18.4283 36.4156 17.9497C34.3817 17.115 32.1055 17.121 30.0759 17.9665C28.0463 18.812 26.4253 20.4294 25.5612 22.4714C24.4106 25.2731 23.9365 28.3122 24.1782 31.3364C24.3962 34.1105 26.2653 36.2229 29.157 37.1221C32.0911 37.907 35.145 38.1258 38.1591 37.7668C39.5447 37.6321 40.9216 37.4168 42.2829 37.1221C43.5914 36.8227 44.8048 36.1955 45.8116 35.2982C46.1817 34.9882 46.4795 34.5994 46.6838 34.1595C46.8881 33.7195 46.9938 33.2393 46.9935 32.7532C47.095 31.5456 46.8712 30.3327 46.3458 29.2437C45.8203 28.1547 45.0129 27.2302 44.0095 26.5688C43.5066 26.1871 42.9702 25.8562 42.4505 25.4999C41.1178 24.5837 40.7742 23.7608 41.5453 22.3017C42.3453 20.707 43.2586 19.1732 44.2778 17.7122C47.5257 13.2548 51.6421 9.51875 56.3727 6.73475C61.416 3.69583 66.9396 1.56063 72.7004 0.423142C75.3664 -0.000365758 78.0702 -0.128372 80.7637 0.0413917C81.6468 0.126446 82.5215 0.285344 83.3788 0.516459V0.516459Z" fill="#333333"/>
<path d="M65.4896 24.314C65.4476 24.5093 65.3944 24.7019 65.3303 24.8909C65.2893 25.0145 65.2223 25.1276 65.1338 25.2223C65.0454 25.3171 64.9376 25.3913 64.818 25.4397C64.6984 25.4881 64.5698 25.5096 64.4412 25.5028C64.3126 25.4959 64.1869 25.4608 64.073 25.3999C63.8962 25.3145 63.7278 25.2123 63.5701 25.0945C62.623 24.4158 61.8435 24.5431 61.3825 25.6205C61.0853 26.3787 60.9126 27.1811 60.8712 27.9958C60.7958 29.2259 60.8712 30.4644 60.8712 31.703C60.8712 32.7634 61.1562 33.0349 62.1955 33.1028C62.4529 33.1268 62.7019 33.2079 62.9247 33.3403C62.8577 33.8154 62.4554 33.6372 62.1788 33.6457C60.955 33.6457 59.7397 33.6457 58.5243 33.6457C58.2983 33.6007 58.0806 33.5206 57.8789 33.4082C58.0379 33.2721 58.2195 33.1658 58.4153 33.0943C58.5374 33.0837 58.6561 33.0486 58.7646 32.991C58.8731 32.9334 58.9692 32.8546 59.0472 32.759C59.1252 32.6634 59.1837 32.5531 59.2191 32.4344C59.2545 32.3157 59.2662 32.1911 59.2535 32.0678C59.2535 30.0318 59.2535 28.0043 59.2535 25.9683C59.2535 25.2048 58.6584 25.3235 58.1387 25.0775L60.7203 23.3809L60.8042 25.2726L60.9802 25.4084C61.2354 25.0168 61.5428 24.6628 61.8938 24.3564C62.4548 23.9778 63.0715 23.6915 63.721 23.5081C64.0062 23.4188 64.3122 23.4242 64.5941 23.5234C64.8761 23.6226 65.1194 23.8105 65.2884 24.0595C65.4889 23.9714 65.7005 23.9115 65.917 23.8814C67.0402 23.8814 68.1634 23.8814 69.2698 23.8814C69.4564 23.9255 69.6348 23.9999 69.7978 24.1019C69.6703 24.2191 69.5262 24.3163 69.3703 24.3904C68.4819 24.6109 68.3981 24.6958 68.6998 25.5611C69.3703 27.4698 70.0744 29.3701 70.7701 31.2788C70.8358 31.3964 70.9086 31.5097 70.988 31.6182C71.2982 30.8801 71.5664 30.2269 71.8262 29.5737C72.3123 28.3691 72.7901 27.1729 73.2679 25.9683C73.3297 25.8217 73.3829 25.6716 73.4271 25.5187C73.6367 24.7721 73.4942 24.5431 72.7482 24.4158C72.6517 24.4155 72.5557 24.4012 72.4632 24.3734C72.3349 24.2876 72.2117 24.1942 72.0944 24.0935C72.2369 24.0171 72.3794 23.8814 72.5219 23.8729C72.8907 23.8729 73.2679 23.9238 73.6367 23.9238C74.2485 23.9238 74.8604 23.8814 75.4723 23.9238C75.6408 23.9587 75.8005 24.028 75.9417 24.1274C75.8243 24.2377 75.7154 24.4243 75.5896 24.4413C75.2677 24.5049 74.9687 24.655 74.7239 24.876C74.479 25.0969 74.2975 25.3804 74.1983 25.6968C72.5219 29.6076 70.6444 33.4251 69.4206 37.5226C69.3872 37.721 69.3092 37.909 69.1926 38.0721C69.076 38.2352 68.924 38.369 68.7483 38.4632C68.5726 38.5575 68.3779 38.6096 68.1791 38.6157C67.9803 38.6218 67.7828 38.5816 67.6018 38.4982C67.4207 38.4556 67.2632 38.343 67.163 38.1845C67.0627 38.026 67.0277 37.8341 67.0653 37.6498C67.0549 37.5658 67.0615 37.4805 67.085 37.3992C67.1084 37.3178 67.148 37.2422 67.2014 37.177C67.2548 37.1118 67.3209 37.0584 67.3955 37.0201C67.4702 36.9818 67.5518 36.9593 67.6353 36.9542C67.694 36.9542 67.7527 36.9033 67.8113 36.9118C68.8171 37.0475 69.1943 36.4028 69.4877 35.5884C69.5715 35.3 69.6888 35.0285 69.7978 34.7401C69.9292 34.3977 69.9917 34.0323 69.9816 33.6652C69.9715 33.298 69.8891 32.9367 69.7391 32.6023C68.7585 30.2099 67.8197 27.8007 66.9061 25.3829C66.8318 25.0647 66.649 24.7831 66.39 24.5876C66.131 24.3922 65.8122 24.2953 65.4896 24.314V24.314Z" fill="#333333"/>
<path d="M12.6932 25.1541C13.1863 24.7273 13.7041 24.3307 14.2439 23.9665C15.0369 23.4468 15.9983 23.2589 16.9254 23.4425C17.8526 23.6261 18.6732 24.1667 19.2143 24.9505C19.512 25.5094 19.6757 26.1313 19.692 26.766C19.7507 28.4626 19.692 30.1593 19.692 31.856C19.692 32.7043 19.7926 32.857 20.6559 33.0691C20.8182 33.1334 20.9684 33.2252 21.1002 33.3406C20.9325 33.4254 20.7649 33.5866 20.5889 33.5866C19.4908 33.5866 18.3845 33.5866 17.2864 33.5866C17.0902 33.5567 16.9004 33.4936 16.7249 33.3999C16.8757 33.2897 17.0098 33.1115 17.1775 33.0691C18.0157 32.8655 18.133 32.7552 18.1246 31.856C18.1246 30.1593 18.1665 28.4626 18.0408 26.766C17.9151 25.0693 17.1439 24.3821 15.6101 24.3652C14.0762 24.3482 12.9531 25.1626 12.819 26.7575C12.6681 28.5984 12.71 30.4562 12.6932 32.3141C12.6932 32.857 13.171 32.9164 13.5314 33.0436C13.7204 33.1262 13.8957 33.2378 14.0511 33.3745C13.8638 33.4685 13.6629 33.5316 13.456 33.5611C12.3915 33.5611 11.327 33.5611 10.2625 33.5611C10.0571 33.5179 9.85929 33.4435 9.67578 33.3406C9.81843 33.2143 9.97961 33.1113 10.1535 33.0352C10.9498 32.84 11.0588 32.7298 11.0588 31.9069V20.7937C11.0588 19.8436 10.975 19.7587 10.0446 19.5636C9.944 19.5636 9.86018 19.4448 9.76798 19.3855C9.84342 19.2837 9.89371 19.114 9.98591 19.0801C10.7486 18.8086 11.5114 18.5541 12.2825 18.3166C12.6597 18.1978 12.6429 18.5032 12.6429 18.7322C12.6429 19.7927 12.6429 20.8446 12.6429 21.905L12.6932 25.1541Z" fill="#333333"/>
<path d="M8.75101 32.3469C8.37786 32.7176 7.97406 33.0553 7.54403 33.3564C4.03206 35.2906 0.151299 32.8898 0.000426401 28.8433C-0.00922207 28.0706 0.144974 27.3048 0.452611 26.5976C0.760248 25.8903 1.21417 25.2581 1.78376 24.7435C2.35335 24.2289 3.02535 23.844 3.75444 23.6146C4.48352 23.3853 5.25273 23.3168 6.01017 23.4139C6.40198 23.4379 6.79145 23.4917 7.17524 23.5751C8.54985 23.9399 8.57499 24.5083 8.36545 25.7638C8.3458 25.8483 8.30671 25.927 8.25137 25.9933C8.19602 26.0596 8.12598 26.1118 8.04694 26.1456C7.9296 26.1456 7.72843 26.0098 7.63623 25.8911C7.40992 25.5857 7.24229 25.2463 7.01598 24.9409C6.8344 24.6674 6.60055 24.4334 6.32821 24.2528C6.05588 24.0722 5.75057 23.9486 5.43029 23.8893C5.11001 23.83 4.78124 23.8362 4.46336 23.9075C4.14549 23.9789 3.84494 24.1139 3.57945 24.3047C2.87095 24.7706 2.35063 25.4778 2.11264 26.2983C1.6634 27.6302 1.6312 29.07 2.02044 30.4212C2.17292 31.0132 2.46622 31.5585 2.87474 32.0094C3.28326 32.4603 3.7946 32.8033 4.36415 33.0082C4.9337 33.2132 5.54415 33.274 6.14225 33.1854C6.74036 33.0967 7.30794 32.8613 7.79549 32.4996C8.03856 32.3299 8.29001 32.1857 8.54147 32.0415L8.75101 32.3469Z" fill="#333333"/>
<path d="M49.758 25.0932L52.4402 23.3965V25.2628L52.5827 25.3307L53.3035 24.6181C53.8389 23.9661 54.6071 23.5544 55.4409 23.4728C55.8308 23.4588 56.2192 23.5282 56.5808 23.6764C56.694 23.7286 56.7952 23.8039 56.8784 23.8975C56.9615 23.991 57.0247 24.101 57.0641 24.2203C57.1034 24.3397 57.118 24.4661 57.1069 24.5914C57.0959 24.7168 57.0595 24.8385 56.9999 24.9489C56.9467 25.0673 56.8698 25.1732 56.7741 25.26C56.6784 25.3468 56.566 25.4126 56.4439 25.4532C56.3219 25.4939 56.1928 25.5085 56.0649 25.4962C55.937 25.4838 55.813 25.4448 55.7007 25.3816C55.4971 25.2644 55.3011 25.1341 55.114 24.9914C54.9832 24.8591 54.823 24.7605 54.6468 24.7038C54.4706 24.6471 54.2835 24.634 54.1013 24.6656C53.919 24.6971 53.7469 24.7725 53.5994 24.8852C53.4518 24.998 53.3331 25.145 53.2532 25.3137C52.888 25.9665 52.6598 26.6885 52.5827 27.4346C52.4821 28.9446 52.5324 30.4631 52.5827 31.9816C52.5827 32.6773 52.8509 32.9403 53.5298 33.0505C53.725 33.0332 53.9214 33.0332 54.1166 33.0505C54.3099 33.128 54.4952 33.2246 54.6698 33.339C54.4862 33.4557 54.2853 33.5416 54.0747 33.5935C52.7587 33.5935 51.4428 33.5935 50.1352 33.5935C49.9416 33.5505 49.7552 33.4791 49.582 33.3814C49.735 33.2393 49.9108 33.1246 50.1017 33.0421C50.789 32.8724 50.9399 32.7112 50.9399 31.9816C50.9399 30.0135 50.9399 28.0369 50.9399 26.0433C50.9399 25.4664 50.7806 25.195 50.1771 25.195C50.0338 25.1785 49.8931 25.1443 49.758 25.0932Z" fill="#333333"/>
</g>
<defs>
<clipPath id="clip0_640_8351">
<rect width="83.382" height="41" fill="white"/>
</clipPath>
</defs>
</svg>
