<svg width="80" height="80" viewBox="0 0 80 80" fill="none" xmlns="http://www.w3.org/2000/svg">
<rect width="80" height="80" rx="40" fill="#141414" style="fill:#141414;fill:color(display-p3 0.0784 0.0784 0.0784);fill-opacity:1;"/>
<g filter="url(#filter0_dd_452_73297)">
<ellipse cx="40.7366" cy="40.7315" rx="12.6873" ry="12.4385" fill="url(#paint0_radial_452_73297)" style=""/>
<path fill-rule="evenodd" clip-rule="evenodd" d="M39.0476 44.3874C39.111 44.2123 39.1682 44.0351 39.2192 43.8565H39.2182L38.0282 43.6387C37.998 43.8827 37.9072 44.1278 37.8084 44.3587C37.4736 45.111 36.9865 45.7887 36.5034 46.4533L37.2265 47.133C37.2326 47.1277 37.2387 47.1225 37.2447 47.1171V47.8904L41.8818 47.9544C41.8972 48.2719 41.9153 48.5852 41.9402 48.9079L41.9523 49.0393C42.0145 49.7218 42.0845 50.4885 42.4596 51.1004C42.7369 51.5774 43.1994 51.8851 43.74 51.4625C43.98 51.2588 44.0671 51.0873 44.1498 50.816C44.2264 50.5477 44.2718 50.3097 44.3091 50.0314L43.4045 48.9443C43.4237 49.2347 43.4706 50.0242 43.3335 50.2431C43.2326 50.3439 43.1318 50.2431 43.1318 50.2431C42.927 50.0314 42.869 49.508 42.8196 48.8525C42.7974 48.3987 42.8115 47.9247 42.866 47.48L42.8791 46.9455L42.3617 46.9525L37.3513 47.0216C37.6718 46.7267 37.9551 46.3961 38.2027 46.0399V46.5623L43.0212 46.4292V45.6859L38.5051 45.5621C38.5814 45.4294 38.6534 45.2942 38.721 45.1566C40.4213 45.1622 42.1215 45.2104 43.8209 45.2765V44.269C42.4009 44.3265 40.979 44.3608 39.5581 44.383C39.3878 44.3848 39.2177 44.3863 39.0476 44.3874ZM39.5955 50.5004C39.6245 50.4762 39.6534 50.4517 39.6823 50.4271C40.0841 50.7093 40.4398 51.045 40.8016 51.3865C40.8669 51.448 40.9323 51.5097 40.9982 51.5714L41.5528 51.0117L41.4339 50.8877C41.0819 50.5204 40.7205 50.1433 40.3217 49.8157C40.6979 49.4076 41.0196 48.9482 41.2221 48.43H41.2211L40.259 48.1295C40.2096 48.2717 40.134 48.4199 40.0543 48.5561C39.9039 48.8089 39.7299 49.0448 39.5375 49.2651C39.1721 49.0361 38.7538 48.7967 38.3678 48.5758L38.3678 48.5758L38.3678 48.5758C38.2008 48.4802 38.04 48.3882 37.8921 48.3019L37.4131 49.1894C37.5401 49.255 37.6817 49.327 37.8309 49.4028L37.8309 49.4029C38.1585 49.5695 38.5226 49.7547 38.8497 49.9311C38.3185 50.3718 37.716 50.735 37.1076 51.0379L37.4545 51.7882C38.2058 51.4494 38.9601 51.0258 39.5955 50.5004Z" fill="white" style="fill:white;fill-opacity:1;"/>
<path fill-rule="evenodd" clip-rule="evenodd" d="M25.2848 26.8296H28.5367V27.8865H33.4958H35.2031V29.5937V36.3414C35.2031 39.5293 32.6188 42.1135 29.4309 42.1135H25.1222V38.699H29.4309C30.733 38.699 31.7886 37.6435 31.7886 36.3414V31.301H28.5367V37.7235H25.2848V31.301H24.2279V27.8865H25.2848V26.8296ZM15.4482 26.9109L13.7409 26.911V27.9678H12.6028V31.2197H13.7409V36.5853C13.7409 36.8878 13.6407 37.4429 13.3886 37.9541C13.1359 38.4664 12.8473 38.7111 12.6079 38.7949L13.7358 42.0177C15.1224 41.5324 15.9719 40.4357 16.4509 39.4643C16.9305 38.4918 17.1554 37.4209 17.1554 36.5853H20.0822V43.0078L23.3341 41.9509V27.9678H20.4073H20.0822H17.1554V26.911L15.4482 26.9109ZM20.0822 33.3334V31.2197H17.1554V33.3334H20.0822ZM38.8615 26.9109L37.1542 26.911V27.9678H36.0161V31.2197H37.1542V36.5853C37.1542 36.8878 37.054 37.4429 36.8019 37.9541C36.5492 38.4664 36.2606 38.7111 36.0212 38.7949L37.1492 42.0177C38.5357 41.5324 39.3852 40.4357 39.8642 39.4643C40.3438 38.4918 40.5687 37.4209 40.5687 36.5853H43.4955V43.0078L46.7474 41.9509V27.9678H43.8207H43.4955H40.5687V26.911L38.8615 26.9109ZM43.4955 33.3334V31.2197H40.5687V33.3334H43.4955ZM48.699 27.9678H51.9509V32.2561C52.1911 32.1993 52.4222 32.1504 52.6448 32.1104C53.5549 31.9468 54.3773 31.9177 55.2028 32.049V27.9678H58.4547V33.9025L56.9914 35.0813L58.4547 36.2601V42.1135H55.2028V35.5502C54.5577 35.3444 54.0017 35.3357 53.2487 35.471C52.8573 35.5414 52.4364 35.6456 51.9509 35.7838V42.1135H48.699V36.7983C48.4968 36.862 48.2868 36.9279 48.0685 36.9959L47.0531 33.7358C47.5968 33.5665 48.11 33.4027 48.5957 33.2478L48.699 33.2148V27.9678ZM61.8688 26.8296H65.1207V27.9678H67.397V31.2197H65.1207V38.8616H67.397V42.1135L65.1207 42.1135H61.8688L59.5925 42.1135V38.8616H61.8688V31.2197H59.5925V27.9678H61.8688V26.8296Z" fill="white" style="fill:white;fill-opacity:1;"/>
</g>
<defs>
<filter id="filter0_dd_452_73297" x="11.302" y="26.0166" width="57.396" height="28.9419" filterUnits="userSpaceOnUse" color-interpolation-filters="sRGB">
<feFlood flood-opacity="0" result="BackgroundImageFix"/>
<feColorMatrix in="SourceAlpha" type="matrix" values="0 0 0 0 0 0 0 0 0 0 0 0 0 0 0 0 0 0 127 0" result="hardAlpha"/>
<feOffset dy="0.487785"/>
<feGaussianBlur stdDeviation="0.65038"/>
<feComposite in2="hardAlpha" operator="out"/>
<feColorMatrix type="matrix" values="0 0 0 0 0 0 0 0 0 0 0 0 0 0 0 0 0 0 0.4 0"/>
<feBlend mode="normal" in2="BackgroundImageFix" result="effect1_dropShadow_452_73297"/>
<feColorMatrix in="SourceAlpha" type="matrix" values="0 0 0 0 0 0 0 0 0 0 0 0 0 0 0 0 0 0 127 0" result="hardAlpha"/>
<feOffset dx="0.162595" dy="0.162595"/>
<feGaussianBlur stdDeviation="0.243893"/>
<feComposite in2="hardAlpha" operator="out"/>
<feColorMatrix type="matrix" values="0 0 0 0 0 0 0 0 0 0 0 0 0 0 0 0 0 0 0.2 0"/>
<feBlend mode="normal" in2="effect1_dropShadow_452_73297" result="effect2_dropShadow_452_73297"/>
<feBlend mode="normal" in="SourceGraphic" in2="effect2_dropShadow_452_73297" result="shape"/>
</filter>
<radialGradient id="paint0_radial_452_73297" cx="0" cy="0" r="1" gradientUnits="userSpaceOnUse" gradientTransform="translate(40.7366 40.7315) rotate(90) scale(12.4577 12.7068)">
<stop stop-color="#DC5265" style="stop-color:#DC5265;stop-color:color(display-p3 0.8625 0.3198 0.3965);stop-opacity:1;"/>
<stop offset="0.458333" stop-color="#CD2C43" style="stop-color:#CD2C43;stop-color:color(display-p3 0.8042 0.1742 0.2632);stop-opacity:1;"/>
<stop offset="1" stop-color="#9C2234" style="stop-color:#9C2234;stop-color:color(display-p3 0.6118 0.1333 0.2039);stop-opacity:1;"/>
</radialGradient>
</defs>
</svg>
