<svg width="8" height="8" viewBox="0 0 8 8" fill="none" xmlns="http://www.w3.org/2000/svg">
<path d="M7.61825 0.285316C7.77709 0.444153 7.83925 0.630617 7.83232 0.899883L7.83924 5.71288C7.83924 5.9062 7.77023 6.0858 7.61827 6.23776C7.32136 6.53468 6.87249 6.52775 6.57557 6.23083C6.42362 6.07887 6.3546 5.88555 6.3546 5.69223L6.36146 3.93132L6.50649 2.35002L5.05636 3.9106L1.3551 7.61185C1.04437 7.92259 0.595516 7.9295 0.284792 7.61878C-0.0328544 7.30113 -0.025946 6.85228 0.284792 6.54154L3.98604 2.84029L5.55355 1.39708L3.97223 1.54209L2.21137 1.54899C2.01806 1.53515 1.81777 1.47303 1.66586 1.32111C1.36893 1.02419 1.36893 0.582244 1.66584 0.28533C1.8178 0.133373 1.99045 0.057401 2.18378 0.0574151L7.00368 0.0712457C7.29372 0.0712316 7.45943 0.126493 7.61825 0.285316Z" fill="#D9D9D9"/>
</svg>
