<svg width="80" height="80" viewBox="0 0 80 80" fill="none" xmlns="http://www.w3.org/2000/svg">
<rect width="80" height="80" rx="40" fill="#F5F5F5" style="fill:#F5F5F5;fill:color(display-p3 0.9625 0.9625 0.9625);fill-opacity:1;"/>
<path fill-rule="evenodd" clip-rule="evenodd" d="M33.7656 40.0002C33.7656 40.1649 33.7613 40.3295 33.7536 40.4942C33.7459 40.6588 33.7331 40.8235 33.7177 40.9873C33.7014 41.152 33.6817 41.3149 33.6578 41.4787C33.6329 41.6416 33.6056 41.8037 33.573 41.9658C33.5414 42.127 33.5054 42.2882 33.4661 42.4477C33.4259 42.608 33.3822 42.7666 33.3352 42.9244C33.2872 43.0822 33.2359 43.2391 33.1811 43.3942C33.1255 43.5494 33.0673 43.7029 33.004 43.8555C32.9415 44.008 32.8756 44.158 32.8055 44.3072C32.7353 44.4563 32.6617 44.6037 32.5847 44.7486C32.5077 44.8943 32.4273 45.0374 32.3434 45.1788C32.2587 45.3201 32.1714 45.4598 32.0807 45.5969C31.9891 45.7339 31.895 45.8684 31.7975 46.0012C31.7008 46.1339 31.5998 46.2633 31.4963 46.3908C31.3919 46.5184 31.2849 46.6434 31.1754 46.765C31.0658 46.8874 30.9529 47.0072 30.8365 47.1236C30.721 47.24 30.6029 47.3538 30.4814 47.4641C30.3599 47.5753 30.2367 47.6822 30.11 47.7874C29.9834 47.8917 29.8542 47.9935 29.7233 48.0917C29.5915 48.19 29.458 48.2848 29.3219 48.3762C29.1859 48.4676 29.0473 48.5555 28.9069 48.6409C28.7666 48.7254 28.6245 48.8064 28.4799 48.8849C28.3353 48.9624 28.1899 49.0366 28.0418 49.1064C27.8938 49.1771 27.744 49.2443 27.5926 49.3073C27.442 49.3702 27.2888 49.4297 27.1348 49.4849C26.9808 49.5409 26.8259 49.5926 26.6693 49.64C26.5127 49.6883 26.3544 49.7323 26.1961 49.7719C26.0378 49.8125 25.8778 49.8478 25.7169 49.8806C25.5569 49.9125 25.3951 49.9409 25.2334 49.965C25.0717 49.9892 24.9091 50.009 24.7465 50.0254C24.5839 50.0418 24.4205 50.0538 24.2571 50.0616C24.0936 50.0702 23.9302 50.0737 23.7668 50.0737C23.6025 50.0737 23.439 50.0702 23.2756 50.0616C23.1122 50.0538 22.9496 50.0418 22.7861 50.0254C22.6235 50.009 22.461 49.9892 22.2992 49.965C22.1375 49.9409 21.9766 49.9125 21.8158 49.8806C21.6549 49.8478 21.4957 49.8125 21.3366 49.7719C21.1783 49.7323 21.0208 49.6883 20.8642 49.64C20.7076 49.5926 20.5519 49.5409 20.3979 49.4849C20.2439 49.4297 20.0915 49.3702 19.9401 49.3073C19.7886 49.2443 19.6389 49.1771 19.4917 49.1064C19.3437 49.0366 19.1973 48.9624 19.0527 48.8849C18.909 48.8064 18.7661 48.7254 18.6257 48.6409C18.4854 48.5555 18.3476 48.4676 18.2116 48.3762C18.0755 48.2848 17.9412 48.19 17.8103 48.0917C17.6785 47.9935 17.5493 47.8917 17.4235 47.7874C17.2968 47.6822 17.1728 47.5753 17.0513 47.4641C16.9306 47.3538 16.8117 47.24 16.6961 47.1236C16.5806 47.0072 16.4677 46.8874 16.3573 46.765C16.2478 46.6434 16.1408 46.5184 16.0373 46.3908C15.9337 46.2633 15.8327 46.1339 15.7352 46.0012C15.6376 45.8684 15.5435 45.7339 15.4528 45.5969C15.3621 45.4598 15.274 45.3201 15.1901 45.1788C15.1063 45.0374 15.025 44.8943 14.948 44.7486C14.8709 44.6037 14.7973 44.4563 14.7272 44.3072C14.6579 44.158 14.5911 44.0072 14.5287 43.8555C14.4662 43.7029 14.4072 43.5494 14.3515 43.3942C14.2968 43.2391 14.2454 43.0822 14.1984 42.9244C14.1504 42.7666 14.1068 42.608 14.0674 42.4477C14.0272 42.2882 13.9913 42.127 13.9596 41.9658C13.928 41.8037 13.8997 41.6416 13.8758 41.4787C13.8518 41.3149 13.8313 41.152 13.8159 40.9873C13.7996 40.8235 13.7876 40.6588 13.7791 40.4942C13.7714 40.3295 13.7671 40.1649 13.7671 40.0002C13.7671 39.8356 13.7714 39.6709 13.7791 39.5062C13.7876 39.3416 13.7996 39.1769 13.8159 39.0131C13.8313 38.8485 13.8518 38.6855 13.8758 38.5217C13.8997 38.3588 13.928 38.1967 13.9596 38.0347C13.9913 37.8735 14.0272 37.7122 14.0674 37.5528C14.1068 37.3924 14.1504 37.2338 14.1984 37.076C14.2454 36.9183 14.2968 36.7614 14.3515 36.6062C14.4072 36.451 14.4662 36.2976 14.5287 36.145C14.5911 35.9932 14.6579 35.8424 14.7272 35.6932C14.7973 35.5441 14.8709 35.3967 14.948 35.2519C15.025 35.1062 15.1063 34.9631 15.1901 34.8217C15.274 34.6794 15.3613 34.5406 15.4528 34.4036C15.5435 34.2665 15.6376 34.132 15.7352 33.9992C15.8327 33.8665 15.9337 33.7372 16.0373 33.6096C16.1408 33.482 16.2478 33.357 16.3573 33.2354C16.4677 33.113 16.5806 32.9932 16.6961 32.8768C16.8117 32.7604 16.9306 32.6466 17.0513 32.5363C17.1728 32.4251 17.2968 32.3173 17.4235 32.213C17.5493 32.1087 17.6785 32.007 17.8103 31.9087C17.9412 31.8104 18.0755 31.7156 18.2116 31.6242C18.3476 31.5328 18.4854 31.444 18.6257 31.3595C18.7661 31.2751 18.909 31.194 19.0527 31.1156C19.1973 31.038 19.3437 30.9638 19.4917 30.894C19.6389 30.8233 19.7886 30.7561 19.9401 30.6932C20.0915 30.6302 20.2439 30.5707 20.3979 30.5156C20.5519 30.4595 20.7076 30.4078 20.8642 30.3604C21.0208 30.3121 21.1783 30.2681 21.3366 30.2285C21.4957 30.188 21.6549 30.1518 21.8158 30.1199C21.9766 30.088 22.1375 30.0595 22.2992 30.0354C22.461 30.0112 22.6235 29.9914 22.7861 29.975C22.9496 29.9587 23.1122 29.9466 23.2756 29.9388C23.439 29.9302 23.6025 29.9268 23.7668 29.9268C23.9302 29.9268 24.0936 29.9302 24.2571 29.9388C24.4205 29.9466 24.5839 29.9587 24.7465 29.975C24.9091 29.9914 25.0717 30.0112 25.2334 30.0354C25.3951 30.0595 25.5569 30.088 25.7169 30.1199C25.8778 30.1518 26.0378 30.188 26.1961 30.2285C26.3544 30.2681 26.5127 30.3121 26.6693 30.3604C26.8259 30.4078 26.9808 30.4595 27.1348 30.5156C27.2888 30.5707 27.442 30.6302 27.5926 30.6932C27.744 30.7561 27.8938 30.8233 28.0418 30.894C28.1899 30.9638 28.3353 31.038 28.4799 31.1156C28.6245 31.194 28.7666 31.2751 28.9069 31.3595C29.0473 31.444 29.1859 31.5328 29.3219 31.6242C29.458 31.7156 29.5915 31.8104 29.7233 31.9087C29.8542 32.007 29.9834 32.1087 30.11 32.213C30.2367 32.3173 30.3599 32.4251 30.4814 32.5363C30.6029 32.6466 30.721 32.7604 30.8365 32.8768C30.9529 32.9932 31.0658 33.113 31.1754 33.2354C31.2849 33.357 31.3919 33.482 31.4963 33.6096C31.5998 33.7372 31.7008 33.8665 31.7975 33.9992C31.895 34.132 31.9891 34.2665 32.0807 34.4036C32.1714 34.5406 32.2587 34.6794 32.3434 34.8217C32.4273 34.9631 32.5077 35.1062 32.5847 35.2519C32.6617 35.3967 32.7353 35.5441 32.8055 35.6932C32.8756 35.8424 32.9415 35.9932 33.004 36.145C33.0673 36.2976 33.1255 36.451 33.1811 36.6062C33.2359 36.7614 33.2872 36.9183 33.3352 37.076C33.3822 37.2338 33.4259 37.3924 33.4661 37.5528C33.5054 37.7122 33.5414 37.8735 33.573 38.0347C33.6056 38.1967 33.6329 38.3588 33.6578 38.5217C33.6817 38.6855 33.7014 38.8485 33.7177 39.0131C33.7331 39.1769 33.7459 39.3416 33.7536 39.5062C33.7613 39.6709 33.7656 39.8356 33.7656 40.0002Z" fill="white" style="fill:white;fill-opacity:1;"/>
<mask id="mask0_452_73832" style="mask-type:luminance" maskUnits="userSpaceOnUse" x="39" y="32" width="28" height="16">
<path fill-rule="evenodd" clip-rule="evenodd" d="M39.7544 32.6689H66.2332V47.8352H39.7544V32.6689Z" fill="white" style="fill:white;fill-opacity:1;"/>
</mask>
<g mask="url(#mask0_452_73832)">
<path fill-rule="evenodd" clip-rule="evenodd" d="M46.4905 47.8349H40.9434C40.9039 47.8349 40.8643 47.8331 40.8247 47.8288C40.786 47.8253 40.7473 47.8192 40.7086 47.8113C40.6699 47.8035 40.6312 47.7939 40.5934 47.7817C40.5564 47.7703 40.5194 47.7564 40.4824 47.7407C40.4463 47.725 40.411 47.7084 40.3757 47.6893C40.3413 47.6701 40.3078 47.6491 40.2751 47.6265C40.2424 47.6047 40.2114 47.5803 40.1805 47.555C40.1504 47.5288 40.122 47.5018 40.0945 47.4739C40.0661 47.4451 40.0403 47.4155 40.0153 47.3841C39.9912 47.3527 39.968 47.3205 39.9465 47.2865C39.925 47.2533 39.9052 47.2185 39.8872 47.1836C39.8691 47.1478 39.8528 47.1112 39.8381 47.0746C39.8235 47.0371 39.8106 46.9996 39.8003 46.9613C39.7891 46.9229 39.7805 46.8837 39.7728 46.8444C39.7659 46.8052 39.7607 46.7651 39.7581 46.7259C39.7547 46.6858 39.7538 46.6456 39.7547 46.6055V33.8765C39.7538 33.8364 39.7547 33.7971 39.7581 33.7579C39.7616 33.7178 39.7667 33.6786 39.7736 33.6393C39.7805 33.601 39.79 33.5617 39.8003 33.5242C39.8115 33.4859 39.8244 33.4484 39.839 33.4118C39.8536 33.3743 39.87 33.3385 39.888 33.3037C39.9061 33.2688 39.9259 33.2339 39.9482 33.2008C39.9697 33.1676 39.993 33.1363 40.0171 33.1049C40.042 33.0744 40.0687 33.0447 40.0962 33.0168C40.1237 32.9889 40.153 32.9628 40.1831 32.9375C40.2132 32.9122 40.245 32.8887 40.2777 32.8669C40.3104 32.8451 40.3439 32.8241 40.3783 32.8058C40.4127 32.7875 40.448 32.771 40.485 32.7561C40.5211 32.7413 40.5581 32.7282 40.5951 32.7169C40.6329 32.7056 40.6708 32.6968 40.7095 32.689C40.7482 32.682 40.7869 32.6768 40.8256 32.6733C40.8652 32.6698 40.9039 32.6689 40.9434 32.6689H46.1396C48.9919 32.6689 50.6872 34.3508 50.6872 36.5365C50.6872 38.7222 49.3548 39.5322 48.8921 39.7013C49.6112 39.8853 51.5637 40.7214 51.5637 43.4852C51.5637 45.8505 49.68 47.8261 46.4905 47.8261M46.0268 34.8996H42.1596V38.7314H46.0311C47.5665 38.7314 48.2899 37.8665 48.2899 36.8203C48.2899 35.7732 47.6121 34.9083 46.0311 34.9083M46.5773 40.9397H42.1596V45.5832H46.5773C48.3483 45.5832 49.1603 44.4228 49.1603 43.2615C49.1603 42.1002 48.3587 40.9397 46.5773 40.9397ZM58.4859 47.8349H54.8045C54.7649 47.8357 54.7253 47.8349 54.6849 47.8314C54.6454 47.8279 54.6058 47.8227 54.5671 47.8157C54.5275 47.8078 54.4888 47.7991 54.4501 47.7878C54.4123 47.7765 54.3744 47.7634 54.3374 47.7477C54.2996 47.7329 54.2634 47.7163 54.2282 47.6971C54.1929 47.6779 54.1585 47.6579 54.125 47.6352C54.0923 47.6134 54.0596 47.589 54.0286 47.5637C53.9977 47.5376 53.9684 47.5105 53.94 47.4818C53.9116 47.4539 53.885 47.4234 53.86 47.392C53.8351 47.3606 53.811 47.3283 53.7886 47.2943C53.7671 47.2603 53.7465 47.2263 53.7284 47.1897C53.7095 47.154 53.6932 47.1173 53.6777 47.0798C53.6631 47.0424 53.6502 47.004 53.639 46.9656C53.6278 46.9264 53.6183 46.8872 53.6115 46.8471C53.6046 46.8078 53.5994 46.7677 53.596 46.7267C53.5925 46.6866 53.5917 46.6465 53.5925 46.6056V33.8765C53.5925 33.8364 53.5942 33.7963 53.5977 33.757C53.602 33.7169 53.608 33.6777 53.6149 33.6385C53.6226 33.5992 53.633 33.56 53.6441 33.5216C53.6553 33.4833 53.6691 33.4458 53.6846 33.4092C53.6992 33.3717 53.7164 33.3359 53.7353 33.3011C53.7542 33.2653 53.7749 33.2313 53.7964 33.1982C53.8187 33.165 53.8428 33.1337 53.8678 33.1023C53.8927 33.0718 53.9202 33.0421 53.9478 33.0142C53.9762 32.9863 54.0054 32.9602 54.0364 32.9349C54.0673 32.9096 54.0992 32.8861 54.1318 32.8643C54.1654 32.8425 54.1998 32.8224 54.2342 32.8041C54.2695 32.7858 54.3056 32.7692 54.3417 32.7544C54.3787 32.7396 54.4157 32.7265 54.4544 32.7152C54.4922 32.7047 54.5301 32.6951 54.5697 32.6881C54.6084 32.6812 54.6471 32.6759 54.6866 32.6733C54.7262 32.6698 54.7649 32.669 54.8045 32.669H58.4859C63.4765 32.669 66.2333 36.0605 66.2333 40.248C66.2333 44.4355 63.4481 47.8262 58.4859 47.8262M58.3322 34.8996H56.0175V45.6147H58.3322C61.864 45.6147 63.8122 43.4874 63.8122 40.2571C63.8122 37.026 61.8769 34.9109 58.3133 34.9109" fill="#00589D" style="fill:#00589D;fill:color(display-p3 0.0000 0.3450 0.6160);fill-opacity:1;"/>
</g>
<path fill-rule="evenodd" clip-rule="evenodd" d="M19.5139 39.693L13.8638 41.6751C13.7988 41.1954 13.7671 40.714 13.7671 40.23C13.7662 39.5017 13.8398 38.7804 13.9879 38.068C14.1359 37.3547 14.355 36.6661 14.6459 36.0021L19.5379 39.5528C19.5679 39.5757 19.5807 39.5951 19.5807 39.6172C19.5807 39.6401 19.5507 39.6754 19.5165 39.6859M23.7288 29.9268C23.2573 29.9276 22.7884 29.9629 22.3221 30.0334C21.8557 30.1031 21.3962 30.2063 20.9435 30.3438C20.4917 30.4805 20.0511 30.6498 19.6215 30.8517C19.1928 31.0527 18.7795 31.2846 18.3825 31.5465L22.4864 36.0238C22.5146 36.0529 22.5334 36.0705 22.5574 36.0705C22.5813 36.0705 22.6087 36.0547 22.6173 36.0062C22.6712 35.7223 23.7288 29.9268 23.7288 29.9268ZM20.5827 37.3576C20.5818 37.34 20.5784 37.3224 20.5716 37.3065L18.3202 31.5868C17.9257 31.8504 17.551 32.1423 17.1958 32.4606C16.8407 32.7789 16.5096 33.121 16.2015 33.4878C15.8926 33.8537 15.6111 34.2408 15.3552 34.6481C15.1002 35.0555 14.8735 35.4787 14.6758 35.9196L20.4766 37.3973C20.4937 37.4 20.5117 37.4 20.5288 37.3973C20.5356 37.3973 20.5433 37.3964 20.5502 37.3938C20.557 37.3911 20.5639 37.3867 20.569 37.3814C20.5741 37.3761 20.5784 37.3691 20.581 37.362C20.5835 37.355 20.5844 37.347 20.5844 37.34M28.0181 39.6927L33.6682 41.6792C33.7333 41.1995 33.7658 40.7181 33.7658 40.2341C33.7666 39.5058 33.6922 38.7845 33.5442 38.0721C33.3961 37.3588 33.1771 36.6702 32.8861 36.0062L27.995 39.5569C27.9642 39.5798 27.9513 39.5992 27.9513 39.6213C27.9513 39.6442 27.9821 39.6795 28.0164 39.6909M24.9118 36.0062C24.9118 36.0547 24.9486 36.0705 24.9726 36.0705C24.9965 36.0705 25.0179 36.0529 25.0436 36.0238L29.1509 31.5465C28.7539 31.2846 28.3406 31.0527 27.9119 30.8517C27.4823 30.6498 27.0416 30.4805 26.589 30.3429C26.1372 30.2063 25.6768 30.1031 25.2105 30.0326C24.7441 29.9629 24.2743 29.9276 23.8028 29.9268C23.8028 29.9268 24.8605 35.7223 24.9118 36.0062ZM27.0055 37.4149C27.0218 37.4176 27.0389 37.4176 27.0551 37.4149L32.8559 35.9196C32.6582 35.4796 32.4323 35.0555 32.1773 34.6481C31.9215 34.2408 31.64 33.8546 31.3319 33.4878C31.0239 33.121 30.6927 32.7789 30.3376 32.4606C29.9825 32.1423 29.6085 31.8504 29.2132 31.5868L26.9627 37.3065C26.9559 37.3224 26.9525 37.34 26.9516 37.3576C26.9516 37.3735 26.9576 37.3867 26.9679 37.3982C26.979 37.4096 26.9927 37.4149 27.0081 37.4149" fill="#F26924" style="fill:#F26924;fill:color(display-p3 0.9490 0.4120 0.1410);fill-opacity:1;"/>
<path fill-rule="evenodd" clip-rule="evenodd" d="M23.7666 50.0723C23.9163 50.0723 24.066 50.0688 24.2149 50.0619C24.3646 50.0558 24.5134 50.0454 24.6632 50.0324C24.812 50.0194 24.9609 50.003 25.1089 49.983C25.2569 49.9631 25.4048 49.9397 25.552 49.9128C25.6991 49.8868 25.8462 49.8573 25.9916 49.8244C26.1379 49.7914 26.2833 49.755 26.4278 49.7152C26.5715 49.6761 26.7151 49.6337 26.8579 49.5877C26.9998 49.5418 27.1418 49.4932 27.282 49.4412C27.4222 49.3883 27.5606 49.3337 27.6991 49.2757C27.8367 49.2167 27.9735 49.156 28.1085 49.091C28.2435 49.0269 28.3767 48.9601 28.5092 48.8899C28.6416 48.8197 28.7723 48.746 28.9012 48.6697C29.0293 48.5943 29.1565 48.5154 29.282 48.4331C29.4075 48.3516 29.5312 48.2675 29.6524 48.1799C29.7744 48.0924 29.8939 48.0031 30.0116 47.9103C30.1293 47.8176 30.2452 47.7231 30.3586 47.6251C30.472 47.5272 30.5836 47.4275 30.6927 47.3243C30.8017 47.2221 30.9081 47.1172 31.0129 47.0097C31.1167 46.9022 31.2188 46.793 31.3184 46.6811C31.4179 46.5693 31.5148 46.4549 31.6091 46.3387C31.7035 46.2226 31.7961 46.1047 31.8852 45.9842C31.9744 45.8637 32.0609 45.7415 32.1449 45.6175C32.2279 45.4935 32.3093 45.3678 32.388 45.2395C32.4659 45.1121 32.5412 44.9829 32.6139 44.8512C32.6866 44.7203 32.7558 44.5877 32.8225 44.4533C32.8891 44.3198 32.9532 44.1837 33.0138 44.0467C33.0743 43.9098 33.1314 43.7719 33.186 43.6324C33.2405 43.4928 33.2924 43.3515 33.34 43.2102C33.3885 43.068 33.4335 42.925 33.4759 42.7811C33.5174 42.6381 33.5564 42.4933 33.5919 42.3477C33.6273 42.202 33.6594 42.0555 33.6888 41.9082C33.7182 41.7617 33.7433 41.6143 33.7658 41.4661L29.9925 41.994C29.97 41.9957 29.9501 42.0035 29.9328 42.0174C29.9146 42.0321 29.9034 42.0503 29.8973 42.0729C29.8506 42.2081 29.7995 42.3416 29.7441 42.4734C29.6887 42.6051 29.629 42.7352 29.565 42.8635C29.5009 42.9909 29.4326 43.1175 29.3607 43.2405C29.2881 43.3636 29.2119 43.485 29.1314 43.6029C29.0518 43.7217 28.967 43.837 28.8796 43.9505C28.7913 44.0632 28.6996 44.1724 28.6044 44.2799C28.5092 44.3865 28.4105 44.4897 28.3092 44.5903C28.2071 44.6899 28.1015 44.787 27.9934 44.8807C27.8852 44.9734 27.7735 45.0627 27.6593 45.1494C27.5451 45.2352 27.4274 45.3167 27.3079 45.3947C27.1885 45.4727 27.0656 45.5473 26.941 45.6175C26.8164 45.6868 26.69 45.7527 26.5611 45.8143C26.4321 45.8758 26.3006 45.933 26.1682 45.9859C26.0357 46.0388 25.9007 46.0873 25.7649 46.1315C25.629 46.1758 25.4914 46.2148 25.3529 46.2503C25.2144 46.285 25.0751 46.3153 24.934 46.3405C24.979 46.3188 25.0232 46.2962 25.0673 46.2711C25.1106 46.2468 25.153 46.2217 25.1954 46.1948C25.2378 46.1679 25.2794 46.1402 25.3192 46.1107C25.3598 46.0821 25.3997 46.0518 25.4386 46.0206C25.4775 45.9894 25.5156 45.9573 25.5528 45.9235C25.59 45.8897 25.6255 45.8559 25.661 45.8203C25.6965 45.7848 25.7302 45.7484 25.7631 45.7111C25.7969 45.6738 25.8289 45.6348 25.8592 45.5958C25.8904 45.5568 25.9206 45.5169 25.9492 45.4762C25.9778 45.4354 26.0055 45.3938 26.0314 45.3514C26.0582 45.3089 26.0833 45.2655 26.1076 45.2222C26.1309 45.178 26.1543 45.1338 26.1759 45.0887C26.1967 45.0436 26.2175 44.9977 26.2365 44.9517C26.2556 44.9058 26.2729 44.859 26.2893 44.8113C26.3058 44.7645 26.3205 44.7168 26.3343 44.6683C26.3482 44.6206 26.3603 44.5721 26.3715 44.5235C26.3819 44.475 26.3914 44.4256 26.4001 44.3761C26.4079 44.3267 26.4148 44.2773 26.42 44.2279C26.4261 44.1785 26.4304 44.1282 26.433 44.0788C26.4356 44.0285 26.4364 43.9791 26.4364 43.9288C26.4364 43.8786 26.4347 43.8292 26.4321 43.7789C26.4287 43.7295 26.4243 43.6792 26.4191 43.6298C26.4131 43.5804 26.4062 43.5309 26.3975 43.4815C26.3897 43.4321 26.3793 43.3836 26.3681 43.3342C26.3568 43.2856 26.3447 43.2379 26.3309 43.1894C26.317 43.1417 26.3014 43.094 26.285 43.0472C26.2685 42.9996 26.2504 42.9528 26.2313 42.9068C26.2123 42.8609 26.1915 42.8158 26.1699 42.7707C26.1483 42.7256 26.1258 42.6814 26.1007 42.6372C26.0773 42.5939 26.0513 42.5505 26.0245 42.508C25.9985 42.4664 25.9708 42.4248 25.9414 42.3841C25.9129 42.3433 25.8826 42.3035 25.8514 42.2645C25.8203 42.2255 25.7882 42.1873 25.7545 42.15C25.7216 42.1128 25.687 42.0764 25.6515 42.0417C25.6169 42.0061 25.5805 41.9715 25.5433 41.9385C25.5061 41.9056 25.468 41.8726 25.4291 41.8423C25.3893 41.8111 25.3495 41.7808 25.3088 41.7521C25.2681 41.7227 25.2266 41.6958 25.185 41.6689C25.1426 41.6421 25.0993 41.6169 25.0561 41.5926C25.0119 41.5684 24.9678 41.5458 24.9228 41.5242C24.8778 41.5025 24.8319 41.4817 24.7861 41.4626C24.7402 41.4435 24.6935 41.4262 24.6467 41.4097C24.5991 41.3933 24.5515 41.3777 24.5039 41.3638C24.4563 41.3508 24.4079 41.3378 24.3594 41.3265C24.3101 41.3161 24.2616 41.3057 24.2123 41.2979C24.1629 41.2892 24.1136 41.2823 24.0643 41.2771C24.015 41.271 23.9648 41.2667 23.9154 41.2641C23.8652 41.2615 23.8159 41.2598 23.7657 41.2598C23.7155 41.2598 23.6662 41.2615 23.616 41.2641C23.5667 41.2667 23.5165 41.271 23.4671 41.2771C23.4178 41.2823 23.3685 41.2892 23.3191 41.2979C23.2698 41.3057 23.2205 41.3161 23.172 41.3265C23.1236 41.3378 23.0751 41.3508 23.0275 41.3638C22.979 41.3777 22.9314 41.3933 22.8847 41.4097C22.838 41.4262 22.7912 41.4435 22.7454 41.4626C22.6986 41.4825 22.6536 41.5025 22.6086 41.5242C22.5636 41.5458 22.5195 41.5684 22.4753 41.5926C22.4321 41.6169 22.3888 41.6421 22.3464 41.6689C22.304 41.6958 22.2624 41.7227 22.2218 41.7521C22.1811 41.7808 22.1413 41.8111 22.1023 41.8423C22.0634 41.8726 22.0253 41.9056 21.9881 41.9385C21.9509 41.9715 21.9145 42.0061 21.8791 42.0417C21.8436 42.0764 21.8098 42.1128 21.7761 42.15C21.7432 42.1873 21.7112 42.2255 21.68 42.2645C21.6489 42.3035 21.6186 42.3433 21.59 42.3841C21.5606 42.4248 21.5329 42.4664 21.5061 42.508C21.4801 42.5505 21.4541 42.5939 21.4299 42.6372C21.4057 42.6814 21.3832 42.7256 21.3615 42.7707C21.3399 42.8158 21.3191 42.8609 21.3001 42.9068C21.281 42.9528 21.2629 42.9996 21.2464 43.0472C21.23 43.094 21.2144 43.1417 21.2006 43.1894C21.1867 43.2379 21.1737 43.2856 21.1625 43.3342C21.1521 43.3836 21.1417 43.4321 21.1331 43.4815C21.1253 43.5309 21.1175 43.5804 21.1123 43.6298C21.1062 43.6792 21.1019 43.7295 21.0993 43.7789C21.0967 43.8292 21.095 43.8786 21.095 43.9288C21.095 43.9791 21.0958 44.0285 21.0984 44.0788C21.101 44.1282 21.1054 44.1785 21.1106 44.2279C21.1166 44.2773 21.1227 44.3267 21.1313 44.3761C21.1391 44.4256 21.1495 44.475 21.1599 44.5235C21.1711 44.5721 21.1832 44.6206 21.1971 44.6683C21.2109 44.7168 21.2257 44.7645 21.2421 44.8113C21.2585 44.859 21.2759 44.9058 21.2949 44.9517C21.3139 44.9977 21.3338 45.0436 21.3555 45.0887C21.3771 45.1338 21.3996 45.178 21.4238 45.2222C21.4481 45.2655 21.4732 45.3089 21.4991 45.3514C21.526 45.3938 21.5537 45.4354 21.5822 45.4762C21.6108 45.5169 21.6411 45.5568 21.6714 45.5958C21.7025 45.6348 21.7345 45.6738 21.7674 45.7111C21.8012 45.7484 21.8349 45.7848 21.8704 45.8203C21.905 45.8559 21.9414 45.8897 21.9786 45.9235C22.0158 45.9573 22.0539 45.9894 22.0928 46.0206C22.1309 46.0518 22.1707 46.0821 22.2114 46.1107C22.2521 46.1402 22.2936 46.1679 22.336 46.1948C22.3776 46.2217 22.4208 46.2468 22.4641 46.2711C22.5082 46.2954 22.5524 46.3188 22.5965 46.3405C22.4563 46.3153 22.317 46.285 22.1785 46.2503C22.0392 46.2148 21.9024 46.1758 21.7666 46.1315C21.6307 46.0882 21.4957 46.0397 21.3633 45.9868C21.2308 45.9339 21.0993 45.8767 20.9704 45.8151C20.8414 45.7536 20.715 45.6877 20.5904 45.6175C20.4658 45.5473 20.3438 45.4736 20.2235 45.3956C20.1041 45.3176 19.9872 45.2352 19.873 45.1494C19.7579 45.0636 19.6471 44.9743 19.5381 44.8815C19.4299 44.7879 19.3252 44.6917 19.223 44.5911C19.1209 44.4906 19.0223 44.3874 18.9271 44.2808C18.8319 44.1742 18.7401 44.0641 18.6519 43.9514C18.5644 43.8387 18.4805 43.7234 18.4 43.6046C18.3195 43.4867 18.2434 43.3654 18.1707 43.2423C18.0988 43.1183 18.0305 42.9935 17.9664 42.8652C17.9024 42.7369 17.8427 42.6077 17.7873 42.4751C17.7319 42.3433 17.6808 42.2098 17.6341 42.0746C17.628 42.0529 17.6159 42.0347 17.5986 42.02C17.5813 42.0053 17.5605 41.9975 17.538 41.9957L13.7673 41.4678C13.7898 41.616 13.8158 41.7634 13.8444 41.9108C13.8738 42.0581 13.9058 42.2038 13.9413 42.3494C13.9768 42.495 14.0157 42.6398 14.0573 42.7837C14.0997 42.9276 14.1447 43.0706 14.1931 43.2119C14.2416 43.3541 14.2927 43.4945 14.3472 43.6341C14.4017 43.7737 14.4597 43.9124 14.5203 44.0493C14.5808 44.1863 14.644 44.3215 14.7107 44.4559C14.7773 44.5903 14.8474 44.7229 14.9192 44.8538C14.9919 44.9847 15.0672 45.1138 15.146 45.2421C15.2239 45.3696 15.3052 45.4953 15.3892 45.6201C15.4731 45.7441 15.5597 45.8663 15.6488 45.9859C15.7379 46.1064 15.8297 46.2252 15.924 46.3413C16.0183 46.4575 16.1153 46.571 16.2148 46.6829C16.3143 46.7947 16.4164 46.9048 16.5211 47.0123C16.6259 47.1189 16.7323 47.2247 16.8414 47.3269C16.9504 47.4292 17.0612 47.5298 17.1746 47.6277C17.2888 47.7248 17.4039 47.8202 17.5216 47.9129C17.6393 48.0048 17.7587 48.095 17.8807 48.1825C18.0028 48.2692 18.1257 48.3542 18.2512 48.4357C18.3766 48.5172 18.5039 48.596 18.6328 48.6723C18.7618 48.7486 18.8924 48.8214 19.024 48.8916C19.1564 48.9619 19.2905 49.0295 19.4256 49.0936C19.5606 49.1578 19.6973 49.2193 19.8349 49.2774C19.9725 49.3355 20.1118 49.3909 20.252 49.443C20.3922 49.495 20.5333 49.5444 20.6761 49.5895C20.818 49.6354 20.9617 49.6779 21.1062 49.7178C21.2508 49.7568 21.3953 49.7932 21.5415 49.8261C21.6878 49.8591 21.8341 49.8885 21.9812 49.9154C22.1283 49.9414 22.2763 49.9648 22.4243 49.9848C22.5731 50.0047 22.722 50.0212 22.8708 50.035C23.0197 50.048 23.1686 50.0576 23.3183 50.0645C23.468 50.0714 23.6177 50.074 23.7666 50.074" fill="#F26924" style="fill:#F26924;fill:color(display-p3 0.9490 0.4120 0.1410);fill-opacity:1;"/>
</svg>
