<svg width="80" height="81" viewBox="0 0 80 81" fill="none" xmlns="http://www.w3.org/2000/svg">
<rect y="0.779297" width="80" height="80" rx="40" fill="#F5F5F5" style="fill:#F5F5F5;fill:color(display-p3 0.9625 0.9625 0.9625);fill-opacity:1;"/>
<g clip-path="url(#clip0_452_74337)">
<path d="M66.9986 27.8371C66.6457 28.5239 66.3634 29.1502 66.0323 29.6996C65.9729 29.7643 65.899 29.8136 65.8168 29.8432C65.7346 29.8729 65.6465 29.882 65.5601 29.8699C63.9158 29.5061 62.2199 29.4484 60.5553 29.6996C55.1598 30.413 50.0401 32.5334 45.6982 35.8529C43.9688 37.1408 42.4377 38.6812 41.1548 40.4239C41.0715 40.5006 41.0063 40.5953 40.9639 40.7009C40.9215 40.8066 40.903 40.9205 40.9098 41.0343C40.9165 41.1481 40.9484 41.2589 41.003 41.3586C41.0576 41.4584 41.1336 41.5444 41.2254 41.6106C41.5038 41.857 41.8036 42.0776 42.121 42.2698C42.7278 42.6029 43.26 43.0593 43.6841 43.6105C44.1082 44.1617 44.4151 44.7958 44.5854 45.4728C44.7705 46.4549 44.6549 47.4708 44.2543 48.3846C43.7846 49.5797 43.1285 50.6908 42.311 51.6755C41.3751 52.7605 40.0948 53.4813 38.6904 53.7138C36.8053 54.0429 34.8868 54.1315 32.9799 53.9775C32.0512 53.913 31.1368 53.7113 30.2658 53.3787C29.5412 53.1343 28.9007 52.6854 28.4198 52.0848C27.939 51.4842 27.6378 50.757 27.5517 49.9889C27.322 48.2749 27.476 46.5306 28.0022 44.885C28.5609 42.8911 29.4954 41.0255 30.7544 39.391C31.2972 38.6003 32.0314 37.9638 32.8868 37.5425C33.7421 37.1212 34.69 36.9291 35.6397 36.9846C36.4252 36.9697 37.1988 37.18 37.8712 37.5912C38.5436 38.0025 39.0873 38.5978 39.4395 39.3086C39.5036 39.4401 39.537 39.5849 39.537 39.7316C39.537 39.8783 39.5036 40.0231 39.4395 40.1547C39.186 40.885 38.777 41.55 38.2414 42.1026C37.7058 42.6551 37.0566 43.0817 36.34 43.3522C34.7875 43.951 33.2785 44.6597 31.7531 45.33C30.87 45.6377 30.091 46.1919 29.5059 46.9287C29.5059 46.9287 29.4407 46.9617 29.3213 47.0111C29.3693 46.8447 29.4273 46.6814 29.495 46.5222C30.2184 45.0462 31.4361 43.878 32.9311 43.2258C34.3913 42.5281 35.8894 41.9182 37.3659 41.2644C37.7133 41.1106 38.0499 40.9293 38.4516 40.7425C38.0269 40.0064 37.3688 39.4372 36.5843 39.1273C35.267 38.5867 33.7929 38.5906 32.4785 39.1381C31.1641 39.6857 30.1143 40.7332 29.5547 42.0556C28.8096 43.8701 28.5025 45.8382 28.6591 47.7968C28.8002 49.5933 30.0107 50.9613 31.8834 51.5437C33.7836 52.052 35.7614 52.1937 37.7133 51.9612C38.6107 51.874 39.5024 51.7346 40.384 51.5437C41.2315 51.3498 42.0172 50.9436 42.6693 50.3625C42.9089 50.1618 43.1018 49.9099 43.2341 49.625C43.3664 49.3401 43.4349 49.0291 43.4347 48.7143C43.5005 47.9322 43.3555 47.1468 43.0152 46.4415C42.6749 45.7362 42.152 45.1375 41.5022 44.7092C41.1765 44.4619 40.8291 44.2477 40.4926 44.0169C39.6295 43.4236 39.4069 42.8907 39.9063 41.9457C40.4244 40.913 41.0159 39.9196 41.6759 38.9734C43.7794 36.0868 46.4452 33.6672 49.5088 31.8642C52.775 29.8962 56.3522 28.5134 60.083 27.7767C61.8096 27.5024 63.5606 27.4195 65.305 27.5295C65.8769 27.5845 66.4434 27.6875 66.9986 27.8371Z" fill="black" style="fill:black;fill-opacity:1;"/>
<path d="M55.4132 43.2489C55.386 43.3753 55.3516 43.5001 55.3101 43.6225C55.2835 43.7025 55.2401 43.7757 55.1828 43.8371C55.1255 43.8985 55.0557 43.9465 54.9783 43.9779C54.9008 44.0092 54.8176 44.0232 54.7343 44.0187C54.6509 44.0143 54.5696 43.9915 54.4958 43.9521C54.3813 43.8968 54.2722 43.8306 54.1701 43.7543C53.5567 43.3148 53.0519 43.3972 52.7534 44.0949C52.5609 44.586 52.449 45.1056 52.4222 45.6333C52.3734 46.4299 52.4222 47.232 52.4222 48.0341C52.4222 48.7209 52.6068 48.8967 53.2799 48.9406C53.4466 48.9562 53.6078 49.0087 53.7522 49.0945C53.7087 49.4021 53.4482 49.2868 53.2691 49.2923C52.4765 49.2923 51.6894 49.2923 50.9024 49.2923C50.756 49.2631 50.615 49.2112 50.4844 49.1384C50.5873 49.0503 50.705 48.9815 50.8318 48.9351C50.9108 48.9283 50.9877 48.9055 51.058 48.8683C51.1282 48.831 51.1904 48.7799 51.241 48.718C51.2915 48.6561 51.3294 48.5847 51.3523 48.5078C51.3752 48.4309 51.3828 48.3502 51.3746 48.2704C51.3746 46.9518 51.3746 45.6388 51.3746 44.3202C51.3746 43.8257 50.9892 43.9027 50.6527 43.7433L52.3245 42.6445L52.3788 43.8697L52.4928 43.9576C52.6581 43.704 52.8572 43.4747 53.0845 43.2763C53.4478 43.0311 53.8472 42.8457 54.2678 42.7269C54.4526 42.6691 54.6507 42.6726 54.8333 42.7368C55.0159 42.8011 55.1735 42.9227 55.2829 43.0841C55.4128 43.027 55.5498 42.9882 55.69 42.9687C56.4174 42.9687 57.1448 42.9687 57.8613 42.9687C57.9822 42.9972 58.0977 43.0455 58.2033 43.1115C58.1207 43.1874 58.0274 43.2504 57.9265 43.2983C57.3511 43.4412 57.2968 43.4961 57.4922 44.0565C57.9265 45.2926 58.3824 46.5233 58.833 47.7594C58.8755 47.8356 58.9226 47.9089 58.9741 47.9792C59.175 47.5012 59.3487 47.0782 59.5169 46.6551C59.8318 45.875 60.1412 45.1003 60.4506 44.3202C60.4906 44.2253 60.5251 44.1281 60.5537 44.029C60.6894 43.5455 60.5972 43.3972 60.114 43.3148C60.0515 43.3146 59.9894 43.3053 59.9295 43.2873C59.8464 43.2318 59.7666 43.1712 59.6906 43.106C59.7829 43.0566 59.8752 42.9687 59.9675 42.9632C60.2063 42.9632 60.4506 42.9961 60.6894 42.9961C61.0857 42.9961 61.482 42.9687 61.8782 42.9961C61.9873 43.0187 62.0908 43.0636 62.1822 43.128C62.1062 43.1994 62.0356 43.3203 61.9542 43.3313C61.7457 43.3725 61.5521 43.4697 61.3935 43.6128C61.235 43.7559 61.1174 43.9395 61.0531 44.1444C59.9675 46.6771 58.7516 49.1494 57.959 51.803C57.9374 51.9315 57.8868 52.0532 57.8114 52.1589C57.7359 52.2645 57.6374 52.3511 57.5236 52.4122C57.4098 52.4732 57.2837 52.507 57.155 52.5109C57.0262 52.5149 56.8983 52.4888 56.7811 52.4348C56.6638 52.4072 56.5618 52.3343 56.4969 52.2317C56.432 52.129 56.4093 52.0048 56.4337 51.8854C56.4269 51.831 56.4312 51.7757 56.4464 51.7231C56.4616 51.6704 56.4872 51.6214 56.5218 51.5792C56.5564 51.537 56.5992 51.5024 56.6475 51.4776C56.6959 51.4528 56.7487 51.4382 56.8028 51.4349C56.8408 51.4349 56.8788 51.4019 56.9168 51.4074C57.5682 51.4953 57.8125 51.0778 58.0025 50.5504C58.0567 50.3636 58.1327 50.1878 58.2033 50.001C58.2884 49.7793 58.3289 49.5426 58.3223 49.3049C58.3158 49.0671 58.2624 48.8331 58.1653 48.6165C57.5302 47.0672 56.9222 45.5069 56.3306 43.9411C56.2824 43.735 56.1641 43.5526 55.9963 43.4261C55.8286 43.2995 55.6221 43.2367 55.4132 43.2489Z" fill="black" style="fill:black;fill-opacity:1;"/>
<path d="M21.2217 43.791C21.541 43.5146 21.8764 43.2578 22.226 43.0219C22.7395 42.6853 23.3621 42.5637 23.9626 42.6826C24.563 42.8014 25.0945 43.1516 25.4449 43.6592C25.6377 44.0211 25.7437 44.4238 25.7543 44.8349C25.7923 45.9337 25.7543 47.0325 25.7543 48.1313C25.7543 48.6807 25.8194 48.7796 26.3785 48.9169C26.4836 48.9586 26.5809 49.018 26.6662 49.0927C26.5577 49.1477 26.4491 49.2521 26.3351 49.2521C25.624 49.2521 24.9075 49.2521 24.1964 49.2521C24.0693 49.2327 23.9464 49.1918 23.8327 49.1312C23.9304 49.0598 24.0173 48.9444 24.1258 48.9169C24.6687 48.7851 24.7446 48.7136 24.7392 48.1313C24.7392 47.0325 24.7664 45.9337 24.6849 44.8349C24.6035 43.7361 24.1041 43.2911 23.1108 43.2801C22.1174 43.2691 21.39 43.7965 21.3032 44.8294C21.2055 46.0216 21.2326 47.2248 21.2217 48.428C21.2217 48.7796 21.5311 48.818 21.7646 48.9004C21.887 48.9539 22.0005 49.0262 22.1011 49.1147C21.9799 49.1756 21.8497 49.2164 21.7157 49.2356C21.0263 49.2356 20.3369 49.2356 19.6476 49.2356C19.5145 49.2076 19.3864 49.1594 19.2676 49.0927C19.36 49.011 19.4643 48.9442 19.577 48.8949C20.0927 48.7686 20.1632 48.6972 20.1632 48.1643V40.9671C20.1632 40.3518 20.109 40.2969 19.5064 40.1705C19.4413 40.1705 19.387 40.0936 19.3273 40.0551C19.3761 39.9892 19.4087 39.8793 19.4684 39.8573C19.9624 39.6815 20.4564 39.5167 20.9558 39.3629C21.2 39.286 21.1892 39.4837 21.1892 39.6321C21.1892 40.3188 21.1892 41.0001 21.1892 41.6868L21.2217 43.791Z" fill="black" style="fill:black;fill-opacity:1;"/>
<path d="M18.6673 48.4496C18.4257 48.6897 18.1642 48.9084 17.8857 49.1034C15.6112 50.356 13.098 48.8012 13.0003 46.1806C12.994 45.6802 13.0939 45.1843 13.2931 44.7262C13.4924 44.2682 13.7863 43.8588 14.1552 43.5255C14.5241 43.1923 14.9593 42.943 15.4314 42.7944C15.9036 42.6459 16.4018 42.6016 16.8923 42.6645C17.1461 42.68 17.3983 42.7149 17.6468 42.7688C18.5371 43.0051 18.5533 43.3732 18.4176 44.1863C18.4049 44.241 18.3796 44.292 18.3438 44.3349C18.3079 44.3779 18.2625 44.4117 18.2114 44.4335C18.1354 44.4335 18.0051 44.3456 17.9454 44.2687C17.7988 44.0709 17.6903 43.8512 17.5437 43.6534C17.4261 43.4762 17.2747 43.3247 17.0983 43.2077C16.9219 43.0908 16.7242 43.0107 16.5168 42.9723C16.3093 42.9339 16.0964 42.9379 15.8906 42.9841C15.6847 43.0303 15.4901 43.1178 15.3181 43.2413C14.8593 43.5431 14.5223 44.001 14.3682 44.5324C14.0772 45.395 14.0564 46.3275 14.3085 47.2025C14.4072 47.5859 14.5972 47.939 14.8617 48.2311C15.1263 48.5231 15.4575 48.7452 15.8263 48.8779C16.1952 49.0107 16.5905 49.0501 16.9779 48.9926C17.3652 48.9352 17.7328 48.7827 18.0485 48.5485C18.2059 48.4386 18.3688 48.3452 18.5316 48.2518L18.6673 48.4496Z" fill="black" style="fill:black;fill-opacity:1;"/>
<path d="M45.2234 43.7531L46.9604 42.6543V43.863L47.0527 43.9069L47.5195 43.4454C47.8662 43.0232 48.3637 42.7566 48.9037 42.7037C49.1562 42.6947 49.4078 42.7396 49.6419 42.8356C49.7152 42.8694 49.7808 42.9181 49.8346 42.9787C49.8885 43.0393 49.9294 43.1105 49.9549 43.1878C49.9804 43.2652 49.9898 43.347 49.9827 43.4282C49.9755 43.5093 49.9519 43.5882 49.9133 43.6597C49.8789 43.7363 49.8291 43.8049 49.7671 43.8612C49.7051 43.9174 49.6323 43.96 49.5533 43.9863C49.4742 44.0126 49.3907 44.0221 49.3078 44.0141C49.225 44.0061 49.1447 43.9808 49.072 43.9399C48.9401 43.864 48.8131 43.7796 48.692 43.6872C48.6073 43.6015 48.5035 43.5376 48.3894 43.5009C48.2753 43.4642 48.1542 43.4557 48.0361 43.4762C47.9181 43.4966 47.8066 43.5454 47.7111 43.6185C47.6155 43.6915 47.5387 43.7866 47.4869 43.8959C47.2504 44.3187 47.1026 44.7863 47.0527 45.2694C46.9875 46.2474 47.0201 47.2308 47.0527 48.2142C47.0527 48.6647 47.2264 48.835 47.6661 48.9065C47.7925 48.8952 47.9196 48.8952 48.046 48.9065C48.1713 48.9566 48.2913 49.0192 48.4043 49.0933C48.2854 49.1689 48.1553 49.2245 48.0189 49.2581C47.1667 49.2581 46.3144 49.2581 45.4676 49.2581C45.3422 49.2303 45.2215 49.184 45.1094 49.1207C45.2085 49.0287 45.3223 48.9544 45.4459 48.901C45.891 48.7911 45.9887 48.6867 45.9887 48.2142C45.9887 46.9396 45.9887 45.6595 45.9887 44.3684C45.9887 43.9948 45.8856 43.819 45.4948 43.819C45.402 43.8084 45.3108 43.7862 45.2234 43.7531Z" fill="black" style="fill:black;fill-opacity:1;"/>
</g>
<defs>
<clipPath id="clip0_452_74337">
<rect width="53.9999" height="26.5524" fill="white" style="fill:white;fill-opacity:1;" transform="translate(13 27.5029)"/>
</clipPath>
</defs>
</svg>
