<svg width="80" height="81" viewBox="0 0 80 81" fill="none" xmlns="http://www.w3.org/2000/svg">
<rect y="0.779297" width="80" height="80" rx="40" fill="#F5F5F5" style="fill:#F5F5F5;fill:color(display-p3 0.9625 0.9625 0.9625);fill-opacity:1;"/>
<path d="M22.0316 45.9325C21.6485 46.1425 20.7217 46.3032 19.7825 46.3032C16.6312 46.3032 15 43.9923 15 40.9646C15 37.9369 16.6189 35.626 19.7207 35.626C20.7711 35.626 21.6362 35.9102 22.0316 36.0585L21.9328 37.7763C21.5497 37.5785 20.9318 37.2078 19.9679 37.2078C18.3861 37.2078 17.0391 38.2829 17.0391 40.9769C17.0391 43.671 18.3984 44.7461 19.9679 44.7461C20.8947 44.7461 21.5003 44.5237 21.9328 44.2147L22.0316 45.9325Z" fill="#E73A32" style="fill:#E73A32;fill:color(display-p3 0.9059 0.2275 0.1961);fill-opacity:1;"/>
<path d="M22.9702 44.1529C23.3409 44.3877 24.1565 44.7955 25.1699 44.7955C25.9978 44.7955 26.7517 44.3383 26.7517 43.2879C26.7517 42.5464 26.3191 42.2127 25.3923 41.7061L24.4284 41.1747C23.4027 40.6062 22.7354 39.7906 22.7354 38.4559C22.7354 36.5899 24.2677 35.626 26.0102 35.626C27.11 35.626 27.8886 35.9102 28.1852 35.9967L28.0987 37.5909C27.6414 37.4179 27.0235 37.146 26.1461 37.146C25.1946 37.146 24.7003 37.6527 24.7003 38.3694C24.7003 39.148 25.2193 39.4446 25.8001 39.7659L26.9123 40.3961C28.1358 41.0758 28.7166 41.7308 28.7166 43.189C28.7166 45.3022 27.2089 46.3156 25.2316 46.3156C24.1936 46.3156 23.3903 46.1673 22.8713 45.8583L22.9702 44.1529Z" fill="#E73A32" style="fill:#E73A32;fill:color(display-p3 0.9059 0.2275 0.1961);fill-opacity:1;"/>
<path d="M29.5571 35.7627H31.4602V44.648H34.8834V46.168H29.5571V35.7627Z" fill="#E73A32" style="fill:#E73A32;fill:color(display-p3 0.9059 0.2275 0.1961);fill-opacity:1;"/>
<path d="M37.1331 35.7627H39.1845L41.2853 43.783H41.31L43.4727 35.7627H45.4376L42.2616 46.168H40.2472L37.1331 35.7627Z" fill="#E73A32" style="fill:#E73A32;fill:color(display-p3 0.9059 0.2275 0.1961);fill-opacity:1;"/>
<path d="M46.104 35.7627H48.0071V37.5793H46.104V35.7627ZM46.1287 38.4938H47.9824V46.1557H46.1287V38.4938Z" fill="#E73A32" style="fill:#E73A32;fill:color(display-p3 0.9059 0.2275 0.1961);fill-opacity:1;"/>
<path d="M49.8248 39.8527H48.5396V38.4933H49.8248V37.3564C49.8248 36.2565 50.3438 35.2432 52.0245 35.2432C52.5188 35.2432 52.9884 35.342 53.3468 35.4162L53.2726 36.7508C53.0502 36.689 52.8154 36.6272 52.5435 36.6272C52.0121 36.6272 51.6661 36.998 51.6661 37.5788V38.4809H53.0625V39.8403H51.6661V46.1552H49.8248V39.8527Z" fill="#E73A32" style="fill:#E73A32;fill:color(display-p3 0.9059 0.2275 0.1961);fill-opacity:1;"/>
<path d="M56.7575 38.3828C58.3146 38.3828 60.1188 39.1984 60.1188 42.325C60.1188 45.538 58.3146 46.2795 56.7575 46.2795C55.2004 46.2795 53.3838 45.538 53.3838 42.325C53.3838 39.1984 55.2004 38.3828 56.7575 38.3828ZM56.7575 44.9696C57.9439 44.9696 58.2157 43.5978 58.2157 42.325C58.2157 41.0521 57.9439 39.6928 56.7575 39.6928C55.5711 39.6928 55.2869 41.0521 55.2869 42.325C55.2869 43.5978 55.5711 44.9696 56.7575 44.9696Z" fill="#E73A32" style="fill:#E73A32;fill:color(display-p3 0.9059 0.2275 0.1961);fill-opacity:1;"/>
<path d="M61.0474 39.7669C61.0474 39.2849 61.035 38.8401 60.9856 38.5064H62.6539C62.6663 38.9636 62.7157 39.4456 62.7157 39.9028H62.7404C62.9629 39.3097 63.5437 38.3828 64.693 38.3828C64.8165 38.3828 64.903 38.4075 65.0019 38.4322V40.1624C64.8413 40.1129 64.6806 40.0882 64.4829 40.0882C63.729 40.0882 62.8887 40.5454 62.8887 41.979V46.1806H61.0474V39.7669Z" fill="#E73A32" style="fill:#E73A32;fill:color(display-p3 0.9059 0.2275 0.1961);fill-opacity:1;"/>
</svg>
