<svg width="32" height="32" viewBox="0 0 32 32" fill="none" xmlns="http://www.w3.org/2000/svg">
<rect width="32" height="32" fill="white"/>
<path d="M10.5176 24.1953C9.16341 24.1953 8.08919 23.7331 7.29492 22.8086C6.50716 21.8841 6.11328 20.5104 6.11328 18.6875C6.11328 16.8451 6.51693 15.4551 7.32422 14.5176C8.13151 13.5736 9.20573 13.1016 10.5469 13.1016C11.1133 13.1016 11.6081 13.1764 12.0312 13.3262C12.4544 13.4759 12.819 13.6777 13.125 13.9316C13.431 14.179 13.6882 14.4622 13.8965 14.7812H14.0137C13.9876 14.5794 13.9616 14.3027 13.9355 13.9512C13.9095 13.5996 13.8965 13.3132 13.8965 13.0918V8.80469H15.5176V24H14.209L13.9648 22.4766H13.8965C13.6947 22.7956 13.4375 23.0853 13.125 23.3457C12.819 23.6061 12.4512 23.8145 12.0215 23.9707C11.5983 24.1204 11.097 24.1953 10.5176 24.1953ZM10.7715 22.8477C11.9173 22.8477 12.7279 22.5221 13.2031 21.8711C13.6784 21.2201 13.916 20.2533 13.916 18.9707V18.6777C13.916 17.3171 13.6882 16.2721 13.2324 15.543C12.7832 14.8138 11.9629 14.4492 10.7715 14.4492C9.77539 14.4492 9.02995 14.8333 8.53516 15.6016C8.04036 16.3633 7.79297 17.4049 7.79297 18.7266C7.79297 20.0417 8.03711 21.0573 8.52539 21.7734C9.02018 22.4896 9.76888 22.8477 10.7715 22.8477ZM23.7207 14.5664H21.0547V24H19.4336V14.5664H17.5391V13.7852L19.4336 13.248V12.5352C19.4336 11.6367 19.5671 10.9076 19.834 10.3477C20.1009 9.78125 20.4883 9.36458 20.9961 9.09766C21.5039 8.83073 22.1224 8.69727 22.8516 8.69727C23.2617 8.69727 23.6361 8.73307 23.9746 8.80469C24.3197 8.8763 24.6224 8.95768 24.8828 9.04883L24.4629 10.3281C24.2415 10.2565 23.9909 10.1914 23.7109 10.1328C23.4375 10.0677 23.1576 10.0352 22.8711 10.0352C22.2526 10.0352 21.7936 10.237 21.4941 10.6406C21.2012 11.0378 21.0547 11.6628 21.0547 12.5156V13.2969H23.7207V14.5664Z" fill="black"/>
</svg>
