<svg width="80" height="81" viewBox="0 0 80 81" fill="none" xmlns="http://www.w3.org/2000/svg">
<rect y="0.779297" width="80" height="80" rx="40" fill="#F5F5F5" style="fill:#F5F5F5;fill:color(display-p3 0.9625 0.9625 0.9625);fill-opacity:1;"/>
<g clip-path="url(#clip0_452_74722)">
<path d="M40.0004 54.8061C47.7376 54.8061 54.0099 48.5339 54.0099 40.7966C54.0099 33.0593 47.7376 26.7871 40.0004 26.7871C32.2631 26.7871 25.99 33.0593 25.99 40.7966C25.99 48.5339 32.2631 54.8061 40.0004 54.8061Z" fill="white" style="fill:white;fill-opacity:1;"/>
<path d="M40.0004 54.6684C32.3263 54.6684 26.1046 48.4468 26.1046 40.7735C26.1046 33.0994 32.3263 26.8777 40.0004 26.8777V26.5205C29.7096 26.5205 22.5713 31.0657 19.5283 33.5914C16.171 36.3775 14.0303 43.6042 20.0683 48.3937C20.0683 48.3937 27.9033 55.0391 40.0004 55.0391V54.6684Z" fill="#EC008C" style="fill:#EC008C;fill:color(display-p3 0.9255 0.0000 0.5490);fill-opacity:1;"/>
<path d="M40.0005 54.6684C47.6746 54.6684 53.8954 48.4468 53.8954 40.7735C53.8954 33.0994 47.6746 26.8777 40.0005 26.8777V26.5205C50.2913 26.5205 57.4288 31.0657 60.4726 33.5914C63.829 36.3775 65.9698 43.6042 59.9318 48.3937C59.9318 48.3937 52.0976 55.0391 40.0005 55.0391V54.6684Z" fill="#00AEEF" style="fill:#00AEEF;fill:color(display-p3 0.0000 0.6824 0.9373);fill-opacity:1;"/>
<path d="M27.5344 36.4277H34.3256V38.2786H33.3652V37.3081H30.9043V39.7016H31.8193V38.8886H32.8235V41.4405H31.8193V40.7395H30.8816V43.3369H33.3652V42.2299H34.3256V44.1945H27.5344V43.3369H28.398V37.3081H27.5344V36.4277Z" fill="black" style="fill:black;fill-opacity:1;"/>
<path d="M34.9693 38.8672H37.859V43.3601H38.4462V44.2405H34.9465V43.3601H35.6466V39.7021H34.9693V38.8672Z" fill="black" style="fill:black;fill-opacity:1;"/>
<path d="M36.6844 36.3828C37.43 36.3828 37.8361 37.0147 37.8361 37.4662C37.8361 37.9186 37.4519 38.5505 36.7746 38.5505C36.0972 38.5505 35.6912 37.986 35.6912 37.4216C35.6912 36.8563 36.1427 36.3828 36.6844 36.3828Z" fill="black" style="fill:black;fill-opacity:1;"/>
<path d="M42.4655 38.8428H43.2549V40.4915H42.5101C42.2507 39.9043 41.7654 39.7468 41.5169 39.6785C41.2616 39.6086 40.9752 39.5993 40.7376 39.7122C40.5008 39.8251 40.6584 40.2202 40.896 40.3331C41.1327 40.446 42.5438 41.1798 42.8033 41.3719C43.0636 41.564 43.7183 42.5345 43.1984 43.404C42.5641 44.4663 41.8892 44.3576 41.4941 44.3753C40.9861 44.3981 40.0636 44.0324 39.8572 43.8109C39.869 43.9912 39.8572 44.2397 39.8572 44.2397H38.9423V42.6137H39.7898C39.8235 42.8505 40.3568 43.4065 40.9297 43.4714C41.5278 43.5396 41.6972 43.0434 41.1672 42.7384C40.6356 42.4334 39.9701 42.1731 39.5522 41.8909C39.1343 41.6086 38.2995 40.6044 39.1006 39.43C39.9027 38.2556 42.126 38.9102 42.4655 39.2834C42.4655 39.0559 42.4655 38.8428 42.4655 38.8428Z" fill="black" style="fill:black;fill-opacity:1;"/>
<path d="M48.3468 43.4382C48.3468 42.9985 48.3468 40.1416 48.3468 40.1416C48.3358 39.7356 47.8387 39.0582 47.0485 38.9108C46.2583 38.7642 45.1066 39.2158 45.1066 39.2158L44.8471 39.343V38.8779H43.9886V40.5031H44.7342C44.7789 40.2663 45.4116 39.8367 45.7056 39.8485C45.9988 39.8594 46.2355 39.9496 46.2465 40.2318C46.2583 40.514 46.2583 40.7743 46.2583 40.7743C46.1563 40.7743 46.0662 40.7634 46.0662 40.7634C45.8859 40.5705 44.6938 40.3421 44.1698 41.0456C43.7072 41.6657 43.5076 42.0642 43.6845 43.0204C43.8454 43.8957 44.7806 44.3532 45.163 44.3759C45.7612 44.4096 46.1563 44.1501 46.1563 44.1501C46.2583 44.1948 46.292 44.3085 46.495 44.3085C46.6989 44.3085 48.9677 44.3085 48.9677 44.3085V43.4382H48.3468ZM45.9988 43.4155C45.6711 43.4155 45.5919 42.7609 45.5919 42.4677C45.5919 42.1737 45.7839 41.621 46.0215 41.621C46.3147 41.621 46.2692 42.2756 46.2692 42.4559C46.2692 42.6371 46.3257 43.4155 45.9988 43.4155Z" fill="black" style="fill:black;fill-opacity:1;"/>
<path d="M49.2617 38.8555V39.7131H49.9163V43.4335H49.2617V44.2743H52.7159V43.4335H52.0276V38.8555H49.2617Z" fill="black" style="fill:black;fill-opacity:1;"/>
<path d="M50.8987 36.4951C51.7336 36.4951 51.9939 37.2517 51.9939 37.5676C51.9939 37.8835 51.7454 38.6401 50.8987 38.6401C50.052 38.6401 49.8372 37.8717 49.8372 37.4884C49.8372 37.1051 50.1649 36.4951 50.8987 36.4951Z" fill="black" style="fill:black;fill-opacity:1;"/>
</g>
<defs>
<clipPath id="clip0_452_74722">
<rect width="50" height="30.0196" fill="white" style="fill:white;fill-opacity:1;" transform="translate(15 25.7695)"/>
</clipPath>
</defs>
</svg>
