<svg width="80" height="80" viewBox="0 0 80 80" fill="none" xmlns="http://www.w3.org/2000/svg">
<rect width="80" height="80" rx="40" fill="#F5F5F5" style="fill:#F5F5F5;fill:color(display-p3 0.9625 0.9625 0.9625);fill-opacity:1;"/>
<g clip-path="url(#clip0_452_70224)">
<path d="M39.2563 57.2501V53.9833C39.2563 53.4273 39.2475 52.4243 37.3364 52.4243C36.6122 52.4243 36.1179 52.5653 35.8519 52.6511C35.529 52.7546 35.4236 52.8771 35.4236 53.0392V57.2591C35.4236 57.4208 35.4704 57.439 35.6054 57.439H36.0711C36.2031 57.439 36.2714 57.4208 36.2714 57.2501V53.3704C36.2714 53.1514 36.6307 52.9357 37.2983 52.9357C38.4098 52.9357 38.4098 53.6447 38.4098 54.0897V57.2501C38.4098 57.4208 38.4674 57.439 38.6196 57.439H39.1435C39.2475 57.4208 39.2563 57.3345 39.2563 57.2501Z" fill="#001965" style="fill:#001965;fill:color(display-p3 0.0000 0.0980 0.3961);fill-opacity:1;"/>
<path d="M44.2927 55.008C44.2927 53.8724 43.9298 53.1437 43.3789 52.7753C43.0355 52.5382 42.5776 52.4243 42.1393 52.4243C41.7048 52.4243 41.247 52.5382 40.9045 52.7753C40.353 53.1437 39.9917 53.8724 39.9917 55.008C39.9917 56.1339 40.353 56.8619 40.9045 57.231C41.247 57.4674 41.7048 57.5829 42.1393 57.5829C42.5776 57.5829 43.0355 57.4674 43.3789 57.231C43.9298 56.8619 44.2927 56.1339 44.2927 55.008ZM43.4153 55.008C43.4153 55.8981 43.2345 56.4725 42.9692 56.7209C42.7116 56.9671 42.4736 57.0327 42.1393 57.0327C41.8076 57.0327 41.5695 56.9671 41.3146 56.7209C41.046 56.4725 40.8655 55.8981 40.8655 55.008C40.8655 54.1075 41.046 53.5331 41.3146 53.2834C41.5695 53.0392 41.8076 52.9729 42.1393 52.9729C42.4736 52.9729 42.7116 53.0392 42.9692 53.2834C43.2345 53.5331 43.4153 54.1075 43.4153 55.008Z" fill="#001965" style="fill:#001965;fill:color(display-p3 0.0000 0.0980 0.3961);fill-opacity:1;"/>
<path d="M47.6834 52.916C47.6834 52.5744 47.1026 52.4243 46.447 52.4243C45.9332 52.4243 45.6093 52.5084 45.3629 52.5744C45.0383 52.6614 44.9238 52.8011 44.9238 52.9625V57.2785C44.9238 57.4312 44.9817 57.439 45.1151 57.439H45.5996C45.7141 57.439 45.7719 57.4312 45.7719 57.2785V53.3238C45.7719 53.0673 45.9716 52.8965 46.2565 52.8965C46.8665 52.8965 46.9602 53.3429 47.2847 53.3429C47.5039 53.3429 47.6834 53.1893 47.6834 52.916Z" fill="#001965" style="fill:#001965;fill:color(display-p3 0.0000 0.0980 0.3961);fill-opacity:1;"/>
<path d="M51.8692 56.9189V50.9766C51.8692 50.8059 51.8217 50.7852 51.6792 50.7852H51.2116C51.0523 50.7852 51.0321 50.8434 51.0321 50.9951V52.7103C50.7355 52.5563 50.4409 52.4528 49.9934 52.4528C48.519 52.4528 47.76 53.8436 47.76 55.008C47.76 56.7326 48.7193 57.5829 50.1677 57.5829C50.878 57.5829 51.8692 57.231 51.8692 56.9189ZM51.0321 56.6446C51.0321 56.8917 50.6321 57.0224 50.1938 57.0224C49.2722 57.0224 48.6153 56.2565 48.6153 54.942C48.6153 53.7958 49.2429 53.0289 50.1183 53.0289C50.6146 53.0289 50.8506 53.1799 51.0321 53.3326V56.6446Z" fill="#001965" style="fill:#001965;fill:color(display-p3 0.0000 0.0980 0.3961);fill-opacity:1;"/>
<path d="M53.9328 51.1747C53.9237 50.8917 53.6954 50.7002 53.4301 50.7002C53.1257 50.7002 52.9045 50.9095 52.9045 51.2031C52.9045 51.4684 53.0971 51.6938 53.4177 51.6938C53.7435 51.6938 53.9413 51.4386 53.9328 51.1747ZM53.8385 57.2696V52.7169C53.8385 52.5655 53.8001 52.5373 53.6486 52.5373H53.1543C52.9924 52.5373 52.9924 52.5927 52.9924 52.7169V57.2696C52.9924 57.4019 52.9924 57.4391 53.1348 57.4391H53.6486C53.7917 57.4391 53.8385 57.4313 53.8385 57.2696Z" fill="#001965" style="fill:#001965;fill:color(display-p3 0.0000 0.0980 0.3961);fill-opacity:1;"/>
<path d="M62.2802 57.3348C62.2802 57.2892 62.2522 57.2595 62.2132 57.2106L60.407 54.8375L60.3973 54.8272C61.0262 54.3643 61.6903 53.6266 62.0929 52.8309C62.1377 52.7365 62.1455 52.6989 62.1455 52.642C62.1455 52.5566 62.0981 52.5375 61.9751 52.5375H61.5277C61.3579 52.5375 61.2818 52.5294 61.2331 52.6795C60.967 53.492 60.2633 54.3643 59.5492 54.7793C59.5212 54.8 59.5121 54.8272 59.5121 54.8375C59.5121 54.8569 59.5212 54.8751 59.531 54.8854L61.2246 57.2986C61.3208 57.4393 61.3579 57.4393 61.5088 57.4393H62.1559C62.1865 57.4393 62.2802 57.4315 62.2802 57.3348ZM59.3775 57.2986V50.8919C59.3775 50.7573 59.3124 50.7573 59.196 50.7573H58.6939C58.5892 50.7573 58.532 50.7764 58.532 50.9097V57.2892C58.532 57.4212 58.5606 57.4393 58.6939 57.4393H59.196C59.3307 57.4393 59.3775 57.4393 59.3775 57.2986Z" fill="#001965" style="fill:#001965;fill:color(display-p3 0.0000 0.0980 0.3961);fill-opacity:1;"/>
<path d="M57.8632 56.1158C57.8632 54.5248 55.5218 54.7716 55.5218 53.721C55.5218 53.3614 55.8073 52.9913 56.3393 52.9913C56.8928 52.9913 57.0359 53.3523 57.3194 53.3523C57.4625 53.3523 57.6628 53.2672 57.6628 53.0198C57.6628 52.6617 57.0443 52.4531 56.3881 52.4531C55.5218 52.4531 54.7628 52.9163 54.7628 53.7961C54.7628 54.6098 55.3423 54.9604 56.0362 55.2528C56.589 55.4822 57.1009 55.6892 57.1009 56.2102C57.1009 56.5984 56.7868 57.0421 56.1227 57.0421C55.4554 57.0421 55.2642 56.5505 54.9416 56.5505C54.7803 56.5505 54.5793 56.6165 54.5793 56.8623C54.5793 57.2504 55.3423 57.5832 56.1123 57.5832C56.9682 57.5832 57.8632 57.1288 57.8632 56.1158Z" fill="#001965" style="fill:#001965;fill:color(display-p3 0.0000 0.0980 0.3961);fill-opacity:1;"/>
<path d="M18.9153 57.2501V53.9833C18.9153 53.4273 18.9059 52.4243 16.9938 52.4243C16.2705 52.4243 15.7756 52.5653 15.5093 52.6511C15.186 52.7546 15.0833 52.8771 15.0833 53.0392V57.2591C15.0833 57.4208 15.1294 57.439 15.2628 57.439H15.7288C15.8614 57.439 15.9297 57.4208 15.9297 57.2501V53.3704C15.9297 53.1514 16.2907 52.9357 16.9557 52.9357C18.0675 52.9357 18.0675 53.6447 18.0675 54.0897V57.2501C18.0675 57.4208 18.1264 57.439 18.2783 57.439H18.8018C18.9059 57.4208 18.9153 57.3345 18.9153 57.2501Z" fill="#001965" style="fill:#001965;fill:color(display-p3 0.0000 0.0980 0.3961);fill-opacity:1;"/>
<path d="M23.9503 55.008C23.9503 53.8724 23.588 53.1437 23.0371 52.7753C22.6937 52.5382 22.2375 52.4243 21.7988 52.4243C21.3617 52.4243 20.9058 52.5382 20.563 52.7753C20.0115 53.1437 19.6509 53.8724 19.6509 55.008C19.6509 56.1339 20.0115 56.8619 20.563 57.231C20.9058 57.4674 21.3617 57.5829 21.7988 57.5829C22.2375 57.5829 22.6937 57.4674 23.0371 57.231C23.588 56.8619 23.9503 56.1339 23.9503 55.008ZM23.0755 55.008C23.0755 55.8981 22.894 56.4725 22.6277 56.7209C22.3705 56.9671 22.1334 57.0327 21.7988 57.0327C21.4674 57.0327 21.2294 56.9671 20.9715 56.7209C20.7061 56.4725 20.5256 55.8981 20.5256 55.008C20.5256 54.1075 20.7061 53.5331 20.9715 53.2834C21.2294 53.0392 21.4674 52.9729 21.7988 52.9729C22.1334 52.9729 22.3705 53.0392 22.6277 53.2834C22.894 53.5331 23.0755 54.1075 23.0755 55.008Z" fill="#001965" style="fill:#001965;fill:color(display-p3 0.0000 0.0980 0.3961);fill-opacity:1;"/>
<path d="M32.6412 55.008C32.6412 53.8724 32.2799 53.1437 31.7274 52.7753C31.385 52.5382 30.9294 52.4243 30.4907 52.4243C30.0526 52.4243 29.5961 52.5382 29.2533 52.7753C28.7028 53.1437 28.3408 53.8724 28.3408 55.008C28.3408 56.1339 28.7028 56.8619 29.2533 57.231C29.5961 57.4674 30.0526 57.5829 30.4907 57.5829C30.9294 57.5829 31.385 57.4674 31.7274 57.231C32.2799 56.8619 32.6412 56.1339 32.6412 55.008ZM31.7671 55.008C31.7671 55.8981 31.5863 56.4725 31.3183 56.7209C31.0607 56.9671 30.8237 57.0327 30.4907 57.0327C30.1587 57.0327 29.92 56.9671 29.6624 56.7209C29.3964 56.4725 29.2162 55.8981 29.2162 55.008C29.2162 54.1075 29.3964 53.5331 29.6624 53.2834C29.92 53.0392 30.1587 52.9729 30.4907 52.9729C30.8237 52.9729 31.0607 53.0392 31.3183 53.2834C31.5863 53.5331 31.7671 54.1075 31.7671 55.008Z" fill="#001965" style="fill:#001965;fill:color(display-p3 0.0000 0.0980 0.3961);fill-opacity:1;"/>
<path d="M28.262 52.6338C28.262 52.5371 28.1859 52.5371 28.1381 52.5371H27.663C27.5954 52.5458 27.5771 52.5743 27.5485 52.67L26.3115 56.2745L25.0267 52.6894C24.9795 52.5562 24.9606 52.5371 24.8176 52.5371H24.2384C24.199 52.5371 24.1047 52.5371 24.1047 52.651C24.1047 52.6894 24.1213 52.736 24.1428 52.7839L25.864 57.2888C25.9118 57.4017 25.931 57.4311 26.0058 57.4389H26.3785C26.491 57.4389 26.5118 57.4311 26.5596 57.2982L28.224 52.7839C28.262 52.67 28.262 52.651 28.262 52.6338Z" fill="#001965" style="fill:#001965;fill:color(display-p3 0.0000 0.0980 0.3961);fill-opacity:1;"/>
<path d="M63.0065 49.3315H63.3082C63.4695 49.3315 63.7251 49.3315 63.7251 49.5747C63.7251 49.8215 63.4533 49.8215 63.3284 49.8215H63.0065V49.3315ZM62.7411 50.7391H63.0065V50.0479H63.1625C63.3739 50.0479 63.4533 50.1294 63.6516 50.4826L63.7973 50.7391H64.1199L63.9203 50.4234C63.7167 50.0974 63.6341 50.0479 63.5398 50.013V50.0052C63.8799 49.9858 64.0067 49.7309 64.0067 49.5498C64.0067 49.4178 63.9443 49.3014 63.8494 49.2238C63.7134 49.1073 63.4982 49.1073 63.3082 49.1073H62.7411V50.7391ZM63.3922 48.4009C62.5564 48.4009 61.8657 49.0723 61.8657 49.9188C61.8657 50.7571 62.5486 51.436 63.3922 51.436C64.2377 51.436 64.9167 50.7542 64.9167 49.9188C64.9167 49.0775 64.2299 48.4009 63.3922 48.4009ZM63.3889 48.6544C64.094 48.6544 64.665 49.2172 64.665 49.9188C64.665 50.6158 64.094 51.1851 63.3889 51.1851C62.6859 51.1851 62.1174 50.6158 62.1174 49.9188C62.1174 49.2172 62.6859 48.6544 63.3889 48.6544Z" fill="#001965" style="fill:#001965;fill:color(display-p3 0.0000 0.0980 0.3961);fill-opacity:1;"/>
<path d="M27.4048 33.4393C27.7977 33.9954 28.582 33.0705 28.513 32.8988C28.4442 32.7277 27.0154 32.8843 27.4048 33.4393Z" fill="#001965" style="fill:#001965;fill:color(display-p3 0.0000 0.0980 0.3961);fill-opacity:1;"/>
<path d="M30.5053 29.8652C32.5728 29.8652 34.2486 28.1953 34.2486 26.1402C34.2486 24.0839 32.5728 22.4165 30.5053 22.4165C28.4378 22.4165 26.7615 24.0839 26.7615 26.1402C26.7615 28.1953 28.4378 29.8652 30.5053 29.8652ZM30.6075 23.2858C31.978 23.2858 33.0886 24.3917 33.0886 25.7548C33.0886 27.1186 31.978 28.2232 30.6075 28.2232C29.2364 28.2232 28.1226 27.1186 28.1226 25.7548C28.1226 24.3917 29.2364 23.2858 30.6075 23.2858Z" fill="#001965" style="fill:#001965;fill:color(display-p3 0.0000 0.0980 0.3961);fill-opacity:1;"/>
<path d="M49.3053 36.4426C48.8013 34.086 46.7528 34.0131 45.6594 34.0963C44.5343 34.182 42.3982 34.5161 40.2105 34.5161C37.2424 34.5161 33.9229 33.6861 31.3697 32.5067C30.9277 32.3025 31.1475 32.2174 31.3486 32.1088C32.3057 31.5919 33.139 31.112 33.6451 30.2928C34.0326 29.6656 33.8846 29.4638 33.4565 29.8158C32.2986 30.768 30.653 31.3007 28.8106 30.6487C26.9681 29.9966 26.2547 28.2309 26.0909 27.7857C25.9291 27.341 25.6985 27.3082 25.6985 27.9601C25.6985 29.6043 26.4307 30.6004 26.6747 30.8847C26.9197 31.1675 27.0329 31.4475 26.8975 31.611C26.5378 32.045 26.1419 32.5088 26.1269 32.6952C26.1112 32.8904 26.1297 32.998 26.0499 33.2287C25.9701 33.4594 25.6718 33.7871 25.2196 34.3543C24.9617 34.6795 25.1193 35.0219 25.3366 35.2619C25.5988 35.5487 25.7658 35.8794 26.0855 36.0282C26.4051 36.1771 26.7041 36.0671 27.0767 36.1355C27.4433 36.2028 27.9042 36.4165 28.2661 37.061C28.7893 37.9958 29.3617 39.4529 30.3809 40.6658C30.8362 41.2047 30.8342 42.1774 30.8362 42.5057C30.8655 45.3355 29.3693 48.0131 28.4185 49.7103C28.1931 50.1134 28.2388 50.4456 28.5424 50.4482C28.8884 50.4519 30.1855 50.4482 30.3938 50.4482C30.6428 50.4482 30.7795 50.1883 30.7976 49.9227C30.9551 47.6106 32.2733 43.3578 33.2705 42.6313C34.9415 43.6654 36.5999 45.8905 35.788 49.7709C35.7443 49.9801 35.5486 50.4493 36.0466 50.4493C36.0466 50.4493 37.4554 50.4493 37.6524 50.4493C37.8561 50.4493 38.1893 50.3696 38.1688 49.9975C38.085 48.4787 36.8111 45.2792 36.474 43.3911C36.261 42.1979 37.2177 40.0746 40.8182 41.7048C42.2106 40.4739 44.0201 41.2229 43.2471 43.5983C42.4819 45.9498 41.8176 47.0015 39.1936 49.7754C38.8928 50.0934 38.8772 50.4513 39.35 50.4513C39.5856 50.4513 40.7925 50.4493 41.0354 50.4493C41.3969 50.4493 41.5421 50.3487 41.6538 50.0583C41.7655 49.7678 42.9588 45.9899 45.3177 44.2252C45.5001 44.0887 45.6571 43.4827 46.0226 42.1141C47.1702 43.5966 47.31 46.3108 45.3654 49.8008C45.1622 50.1639 45.2892 50.4482 45.521 50.4482C45.6575 50.4482 46.7193 50.4482 47.0484 50.4482C47.333 50.4482 47.4151 50.2946 47.5261 49.8712C47.6619 49.3529 47.7122 49.0988 47.8927 48.5933C48.0046 48.2798 48.0563 48.2294 49.2645 48.2421C49.6507 48.2462 49.6327 48.0406 49.6327 47.7186C49.6327 42.9943 49.6624 38.1125 49.3053 36.4426ZM45.008 34.8807C45.4036 35.6011 45.425 36.0228 45.3117 36.3836C45.1984 36.7444 44.6942 36.9474 44.5836 36.909C44.5703 36.1361 44.3608 35.5494 43.9953 35.0193C44.3324 34.9685 44.6698 34.9183 45.008 34.8807ZM41.8773 35.2549C42.1059 36.1063 42.0774 37.2253 41.755 37.5511C41.2462 38.0653 38.9417 37.9613 38.2783 37.8617C38.1074 37.836 37.9106 37.8034 37.825 37.3402C37.723 36.7891 37.6992 35.7846 37.6675 35.1159C39.062 35.2976 40.4739 35.3442 41.8773 35.2549ZM33.6793 36.8737C33.8675 36.2524 34.0608 35.2107 34.1612 34.361C34.6077 34.4964 35.0584 34.618 35.5127 34.7243C35.207 36.6648 34.5962 37.2108 34.2737 37.3396C34.0255 37.4386 33.4911 37.4951 33.6793 36.8737ZM29.5571 37.8951C29.1639 37.3806 28.6532 36.1381 28.2106 35.7906C27.3607 35.1226 26.6263 35.6459 26.2926 35.2489C25.9374 34.8238 25.7922 34.792 26.1241 34.387C26.1241 34.387 26.4978 33.8904 26.6542 33.6806C26.8105 33.4708 26.7811 33.0656 26.8439 32.8907C26.9061 32.7166 27.295 32.2056 27.6758 31.8755C28.0966 31.5108 28.4427 31.6711 29.7667 32.4665C31.3751 33.4327 31.8668 33.2236 31.3158 34.0907C30.9676 34.6386 29.834 36.1009 29.5571 37.8951ZM47.2554 37.3038C47.1662 38.7547 46.8429 40.8053 46.341 41.0261C45.8392 41.2469 45.0587 39.9145 40.981 39.8417C38.0851 39.79 35.8601 40.1703 35.4514 42.7981C35.4216 42.9894 35.3104 42.9531 35.2285 42.8647C34.4335 42.0072 33.7097 41.6253 32.5376 40.9465C31.3655 40.2676 30.5822 39.3387 30.4365 38.4303C30.2908 37.522 30.6197 36.3001 32.2769 34.0706C32.5069 33.7612 32.5485 33.7895 33.4732 34.1382C33.4024 35.6277 33.034 36.4653 32.8792 37.2347C32.7221 38.0154 33.5953 38.1841 34.3624 38.0042C35.1294 37.8243 35.859 37.021 36.1806 34.8695C36.4815 34.9305 36.7204 34.9737 37.0237 35.022C37.0676 37.253 37.1988 37.7627 37.2903 37.9715C37.4704 38.3823 37.8865 38.5179 38.2244 38.5445C39.9901 38.6835 41.6972 38.6258 42.3084 38.0326C42.9196 37.4395 42.7086 35.9901 42.5409 35.2023C42.817 35.1765 43.0529 35.151 43.3279 35.1145C43.9018 35.7868 43.9816 36.5086 43.9816 36.9803C43.9816 37.4923 44.5504 37.7573 45.3496 37.2108C46.1489 36.6642 46.0595 35.7028 45.632 34.8296C47.442 34.6665 47.3445 35.8528 47.2554 37.3038ZM48.5987 44.4228C48.571 44.6345 48.3647 44.8073 48.315 44.3685C48.2511 43.8043 47.9576 42.5193 47.8626 41.9792C47.7737 41.4732 48.046 39.9289 48.1453 38.647C48.1539 38.5365 48.28 38.54 48.3567 38.6204C48.9058 39.1958 48.713 43.5494 48.5987 44.4228Z" fill="#001965" style="fill:#001965;fill:color(display-p3 0.0000 0.0980 0.3961);fill-opacity:1;"/>
</g>
<defs>
<clipPath id="clip0_452_70224">
<rect width="50" height="35.5" fill="white" style="fill:white;fill-opacity:1;" transform="translate(15 22.25)"/>
</clipPath>
</defs>
</svg>
